<?xml version="1.0" encoding="utf-8"?>
<!-- Generator: Adobe Illustrator 27.8.0, SVG Export Plug-In . SVG Version: 6.00 Build 0)  -->
<svg version="1.1" id="Layer_1" xmlns="http://www.w3.org/2000/svg" xmlns:xlink="http://www.w3.org/1999/xlink" x="0px" y="0px"
	 viewBox="0 0 273.8 87.8" style="enable-background:new 0 0 273.8 87.8;" xml:space="preserve">
<style type="text/css">
	.st0{fill:#094268;stroke:#FFFFFF;stroke-width:0.99;stroke-linejoin:round;stroke-miterlimit:10;}
	.st1{fill:#FAA61A;stroke:#FFFFFF;stroke-width:0.99;stroke-linejoin:round;stroke-miterlimit:10;}
	.st2{fill:#FFFFFF;stroke:#FFFFFF;stroke-width:0.99;stroke-linejoin:round;stroke-miterlimit:10;}
	.st3{fill-rule:evenodd;clip-rule:evenodd;}
</style>
<g>
	<g>
		<g>
			<g>
				<path d="M174,55.5l-7.6-11.6v11.6h-2.5V39h2.3l7.6,11.6V39h2.5v16.5H174z"/>
				<path d="M185.5,55.6c-1.7,0-3.2-0.6-4.3-1.8c-1.6-1.6-1.6-3.5-1.6-6.6c0-3.2,0-5,1.6-6.6c1.1-1.1,2.6-1.8,4.3-1.8
					c3,0,5.3,1.8,5.9,5.1h-2.5c-0.4-1.7-1.5-2.8-3.3-2.8c-1,0-1.9,0.4-2.4,1c-0.8,0.9-1,1.8-1,5.1c0,3.3,0.2,4.3,1,5.1
					c0.6,0.6,1.5,1,2.4,1c1.8,0,3-1.2,3.4-2.8h2.5C190.8,53.9,188.5,55.6,185.5,55.6z"/>
				<path d="M203.3,55.5l-3.5-6.9h-3.1v6.9h-2.5V39h6.4c3.1,0,5.1,2,5.1,4.8c0,2.4-1.4,3.9-3.3,4.4l3.8,7.3H203.3z M200.4,41.3h-3.7
					v5.2h3.7c1.7,0,2.8-0.9,2.8-2.6C203.2,42.2,202.1,41.3,200.4,41.3z"/>
				<path d="M208.9,55.5v-9.9V39h2.5v7v9.5H208.9z"/>
				<path d="M219.6,55.6c-2.5,0-4.3-0.6-5.8-2.2l1.7-1.6c1.2,1.2,2.5,1.6,4.2,1.6c2.2,0,3.4-0.9,3.4-2.5c0-0.7-0.2-1.3-0.6-1.7
					c-0.4-0.4-0.8-0.6-1.8-0.7l-1.9-0.3c-1.3-0.2-2.4-0.6-3.1-1.3c-0.8-0.8-1.2-1.8-1.2-3.1c0-2.9,2.1-4.8,5.5-4.8
					c2.2,0,3.7,0.6,5.1,1.9l-1.6,1.6c-1-1-2.2-1.3-3.6-1.3c-1.9,0-3,1.1-3,2.6c0,0.6,0.2,1.1,0.6,1.5c0.4,0.4,1.1,0.6,1.9,0.8
					l1.9,0.3c1.5,0.2,2.4,0.6,3.1,1.2c0.9,0.8,1.3,2,1.3,3.4C225.6,53.8,223.1,55.6,219.6,55.6z"/>
			</g>
			<g>
				<path d="M167.3,64.2l-2.9-4.4v4.4h-0.6v-5.5h0.6l2.9,4.4v-4.4h0.6v5.5H167.3z"/>
				<path d="M171.5,64.2v-0.4c-0.3,0.3-0.6,0.4-1.1,0.4c-0.5,0-0.8-0.1-1.1-0.3c-0.2-0.2-0.3-0.5-0.3-0.8c0-0.7,0.5-1.1,1.3-1.1h1.1
					v-0.4c0-0.6-0.3-0.8-1-0.8c-0.5,0-0.7,0.1-1,0.4l-0.4-0.3c0.3-0.4,0.7-0.6,1.3-0.6c1,0,1.5,0.4,1.5,1.3v2.6H171.5z M171.5,62.4
					h-1.1c-0.6,0-0.8,0.2-0.8,0.7c0,0.4,0.3,0.6,0.9,0.6c0.3,0,0.6,0,0.8-0.3c0.1-0.1,0.2-0.3,0.2-0.7V62.4z"/>
				<path d="M174.5,64.2c-0.6,0-1-0.5-1-1v-2.3H173v-0.4h0.5v-1.2h0.6v1.2h0.8v0.4H174v2.3c0,0.3,0.2,0.6,0.5,0.6h0.3v0.5H174.5z"/>
				<path d="M176.2,59.4c-0.2,0-0.4-0.2-0.4-0.4c0-0.2,0.2-0.4,0.4-0.4c0.2,0,0.4,0.2,0.4,0.4C176.6,59.2,176.4,59.4,176.2,59.4z
					 M175.9,64.2v-3.8h0.6v3.8H175.9z"/>
				<path d="M180.3,63.8c-0.3,0.3-0.6,0.4-1.1,0.4c-0.5,0-0.8-0.2-1.1-0.4c-0.4-0.4-0.5-0.9-0.5-1.5c0-0.6,0.1-1.1,0.5-1.5
					c0.3-0.3,0.6-0.4,1.1-0.4c0.5,0,0.8,0.2,1.1,0.4c0.4,0.4,0.5,0.9,0.5,1.5C180.8,62.9,180.7,63.4,180.3,63.8z M179.9,61.1
					c-0.2-0.2-0.4-0.3-0.7-0.3c-0.3,0-0.5,0.1-0.7,0.3c-0.3,0.3-0.3,0.7-0.3,1.2c0,0.4,0,0.9,0.3,1.2c0.2,0.2,0.4,0.3,0.7,0.3
					c0.3,0,0.5-0.1,0.7-0.3c0.3-0.3,0.3-0.7,0.3-1.2C180.2,61.9,180.2,61.4,179.9,61.1z"/>
				<path d="M184.4,64.2v-2.3c0-0.7-0.4-1-0.9-1c-0.6,0-0.9,0.3-0.9,1v2.3h-0.6v-3.8h0.6v0.4c0.3-0.3,0.6-0.5,1.1-0.5
					c0.4,0,0.7,0.1,1,0.4c0.3,0.3,0.4,0.6,0.4,1.1v2.4H184.4z"/>
				<path d="M188.4,64.2v-0.4c-0.3,0.3-0.6,0.4-1.1,0.4c-0.5,0-0.8-0.1-1.1-0.3c-0.2-0.2-0.3-0.5-0.3-0.8c0-0.7,0.5-1.1,1.3-1.1h1.1
					v-0.4c0-0.6-0.3-0.8-1-0.8c-0.5,0-0.7,0.1-1,0.4l-0.4-0.3c0.3-0.4,0.7-0.6,1.3-0.6c1,0,1.5,0.4,1.5,1.3v2.6H188.4z M188.4,62.4
					h-1.1c-0.6,0-0.8,0.2-0.8,0.7c0,0.4,0.3,0.6,0.9,0.6c0.3,0,0.6,0,0.8-0.3c0.1-0.1,0.2-0.3,0.2-0.7V62.4z"/>
				<path d="M191.2,64.2c-0.7,0-1-0.4-1-1v-4.5h0.6v4.4c0,0.4,0.1,0.6,0.5,0.6h0.3v0.5H191.2z"/>
				<path d="M197.7,64.2l-1.2-2.4h-1.3v2.4h-0.6v-5.5h2.1c1,0,1.6,0.6,1.6,1.5c0,0.8-0.5,1.3-1.2,1.5l1.3,2.5H197.7z M196.6,59.2
					h-1.5v2h1.5c0.6,0,1.1-0.3,1.1-1C197.7,59.6,197.3,59.2,196.6,59.2z"/>
				<path d="M199.9,62.4c0,0.8,0.4,1.3,1.1,1.3c0.4,0,0.7-0.1,1-0.4l0.4,0.3c-0.4,0.4-0.7,0.6-1.4,0.6c-1,0-1.6-0.6-1.6-1.9
					c0-1.2,0.6-1.9,1.5-1.9c1,0,1.5,0.7,1.5,1.8v0.3H199.9z M201.7,61.4c-0.1-0.3-0.5-0.6-0.9-0.6c-0.4,0-0.7,0.2-0.9,0.6
					c-0.1,0.2-0.1,0.3-0.1,0.6h2C201.8,61.7,201.8,61.6,201.7,61.4z"/>
				<path d="M204.8,64.2c-0.6,0-1.1-0.1-1.5-0.5l0.4-0.4c0.3,0.3,0.7,0.4,1.2,0.4c0.6,0,1-0.2,1-0.7c0-0.3-0.2-0.5-0.6-0.6l-0.6-0.1
					c-0.7-0.1-1.1-0.4-1.1-1c0-0.7,0.6-1.1,1.4-1.1c0.5,0,1,0.1,1.4,0.4l-0.4,0.4c-0.3-0.2-0.6-0.3-1-0.3c-0.6,0-0.8,0.2-0.8,0.6
					c0,0.3,0.2,0.5,0.7,0.6l0.6,0.1c0.7,0.1,1.1,0.3,1.1,1C206.3,63.8,205.7,64.2,204.8,64.2z"/>
				<path d="M207.7,62.4c0,0.8,0.4,1.3,1.1,1.3c0.4,0,0.7-0.1,1-0.4l0.4,0.3c-0.4,0.4-0.7,0.6-1.4,0.6c-1,0-1.6-0.6-1.6-1.9
					c0-1.2,0.6-1.9,1.5-1.9c1,0,1.5,0.7,1.5,1.8v0.3H207.7z M209.6,61.4c-0.1-0.3-0.5-0.6-0.9-0.6c-0.4,0-0.7,0.2-0.9,0.6
					c-0.1,0.2-0.1,0.3-0.1,0.6h2C209.7,61.7,209.7,61.6,209.6,61.4z"/>
				<path d="M213.6,64.2v-0.4c-0.3,0.3-0.6,0.4-1.1,0.4c-0.5,0-0.8-0.1-1.1-0.3c-0.2-0.2-0.3-0.5-0.3-0.8c0-0.7,0.5-1.1,1.3-1.1h1.1
					v-0.4c0-0.6-0.3-0.8-1-0.8c-0.5,0-0.7,0.1-1,0.4l-0.4-0.3c0.3-0.4,0.7-0.6,1.3-0.6c1,0,1.5,0.4,1.5,1.3v2.6H213.6z M213.6,62.4
					h-1.1c-0.6,0-0.8,0.2-0.8,0.7c0,0.4,0.3,0.6,0.9,0.6c0.3,0,0.6,0,0.8-0.3c0.1-0.1,0.2-0.3,0.2-0.7V62.4z"/>
				<path d="M217.6,61.1c-0.2-0.2-0.4-0.3-0.7-0.3c-0.6,0-0.9,0.4-0.9,1v2.3h-0.6v-3.8h0.6v0.5c0.2-0.3,0.6-0.5,1.1-0.5
					c0.4,0,0.6,0.1,0.9,0.4L217.6,61.1z"/>
				<path d="M219.9,64.2c-1,0-1.7-0.6-1.7-1.9c0-1.3,0.7-1.9,1.7-1.9c0.5,0,0.9,0.1,1.2,0.6l-0.4,0.4c-0.3-0.3-0.5-0.4-0.9-0.4
					c-0.4,0-0.7,0.1-0.9,0.4c-0.2,0.2-0.2,0.5-0.2,1c0,0.5,0.1,0.8,0.2,1c0.2,0.3,0.5,0.4,0.9,0.4c0.4,0,0.6-0.1,0.9-0.4l0.4,0.4
					C220.8,64.1,220.4,64.2,219.9,64.2z"/>
				<path d="M224.6,64.2v-2.3c0-0.7-0.4-1-0.9-1c-0.6,0-0.9,0.3-0.9,1v2.3h-0.6v-5.5h0.6v2.1c0.3-0.3,0.6-0.5,1.1-0.5
					c0.9,0,1.4,0.5,1.4,1.4v2.4H224.6z"/>
				<path d="M163.9,71.8v-3.1v-2.4h0.6v2.4v3.1H163.9z"/>
				<path d="M168.3,71.8v-2.3c0-0.7-0.4-1-0.9-1c-0.6,0-0.9,0.3-0.9,1v2.3h-0.6v-3.8h0.6v0.4c0.3-0.3,0.6-0.5,1.1-0.5
					c0.4,0,0.7,0.1,1,0.4c0.3,0.3,0.4,0.6,0.4,1.1v2.4H168.3z"/>
				<path d="M170.9,68.5v3.3h-0.6v-3.3h-0.5v-0.4h0.5v-0.7c0-0.6,0.3-1,1-1h0.4v0.5h-0.3c-0.4,0-0.5,0.2-0.5,0.6v0.7h0.8v0.4H170.9z
					"/>
				<path d="M174.7,68.8c-0.2-0.2-0.4-0.3-0.7-0.3c-0.6,0-0.9,0.4-0.9,1v2.3h-0.6v-3.8h0.6v0.5c0.2-0.3,0.6-0.5,1.1-0.5
					c0.4,0,0.6,0.1,0.9,0.4L174.7,68.8z"/>
				<path d="M177.9,71.8v-0.4c-0.3,0.3-0.6,0.4-1.1,0.4c-0.5,0-0.8-0.1-1.1-0.3c-0.2-0.2-0.3-0.5-0.3-0.8c0-0.7,0.5-1.1,1.3-1.1h1.1
					v-0.4c0-0.6-0.3-0.8-1-0.8c-0.5,0-0.7,0.1-1,0.4l-0.4-0.3c0.3-0.4,0.7-0.6,1.3-0.6c1,0,1.5,0.4,1.5,1.3v2.6H177.9z M177.9,70.1
					h-1.1c-0.6,0-0.8,0.2-0.8,0.7c0,0.4,0.3,0.6,0.9,0.6c0.3,0,0.6,0,0.8-0.3c0.1-0.1,0.2-0.3,0.2-0.7V70.1z"/>
				<path d="M181,71.9c-0.6,0-1.1-0.1-1.5-0.5l0.4-0.4c0.3,0.3,0.7,0.4,1.2,0.4c0.6,0,1-0.2,1-0.7c0-0.3-0.2-0.5-0.6-0.6l-0.6-0.1
					c-0.7-0.1-1.1-0.4-1.1-1c0-0.7,0.6-1.1,1.4-1.1c0.5,0,1,0.1,1.4,0.4l-0.4,0.4c-0.3-0.2-0.6-0.3-1-0.3c-0.6,0-0.8,0.2-0.8,0.6
					c0,0.3,0.2,0.5,0.7,0.6l0.6,0.1c0.7,0.1,1.1,0.3,1.1,1C182.5,71.5,181.9,71.9,181,71.9z"/>
				<path d="M184.6,71.8c-0.6,0-1-0.5-1-1v-2.3h-0.5v-0.4h0.5v-1.2h0.6v1.2h0.8v0.4h-0.8v2.3c0,0.3,0.2,0.6,0.5,0.6h0.3v0.5H184.6z"
					/>
				<path d="M188.2,68.8c-0.2-0.2-0.4-0.3-0.7-0.3c-0.6,0-0.9,0.4-0.9,1v2.3h-0.6v-3.8h0.6v0.5c0.2-0.3,0.6-0.5,1.1-0.5
					c0.4,0,0.6,0.1,0.9,0.4L188.2,68.8z"/>
				<path d="M191.7,71.8v-0.4c-0.3,0.3-0.6,0.5-1.1,0.5c-0.4,0-0.7-0.1-1-0.4c-0.3-0.3-0.4-0.6-0.4-1.1v-2.4h0.6v2.3
					c0,0.7,0.4,1,0.9,1c0.6,0,0.9-0.3,0.9-1v-2.3h0.6v3.8H191.7z"/>
				<path d="M195.1,71.9c-1,0-1.7-0.6-1.7-1.9c0-1.3,0.7-1.9,1.7-1.9c0.5,0,0.9,0.1,1.2,0.6l-0.4,0.4c-0.3-0.3-0.5-0.4-0.9-0.4
					c-0.4,0-0.7,0.1-0.9,0.4c-0.2,0.2-0.2,0.5-0.2,1c0,0.5,0.1,0.8,0.2,1c0.2,0.3,0.5,0.4,0.9,0.4c0.4,0,0.6-0.1,0.9-0.4l0.4,0.4
					C195.9,71.7,195.6,71.9,195.1,71.9z"/>
				<path d="M198.4,71.8c-0.6,0-1-0.5-1-1v-2.3H197v-0.4h0.5v-1.2h0.6v1.2h0.8v0.4H198v2.3c0,0.3,0.2,0.6,0.5,0.6h0.3v0.5H198.4z"/>
				<path d="M202.3,71.8v-0.4c-0.3,0.3-0.6,0.5-1.1,0.5c-0.4,0-0.7-0.1-1-0.4c-0.3-0.3-0.4-0.6-0.4-1.1v-2.4h0.6v2.3
					c0,0.7,0.4,1,0.9,1c0.6,0,0.9-0.3,0.9-1v-2.3h0.6v3.8H202.3z"/>
				<path d="M206.3,68.8c-0.2-0.2-0.4-0.3-0.7-0.3c-0.6,0-0.9,0.4-0.9,1v2.3h-0.6v-3.8h0.6v0.5c0.2-0.3,0.6-0.5,1.1-0.5
					c0.4,0,0.6,0.1,0.9,0.4L206.3,68.8z"/>
				<path d="M207.6,70.1c0,0.8,0.4,1.3,1.1,1.3c0.4,0,0.7-0.1,1-0.4l0.4,0.3c-0.4,0.4-0.7,0.6-1.4,0.6c-1,0-1.6-0.6-1.6-1.9
					c0-1.2,0.6-1.9,1.5-1.9c1,0,1.5,0.7,1.5,1.8v0.3H207.6z M209.5,69.1c-0.1-0.3-0.5-0.6-0.9-0.6c-0.4,0-0.7,0.2-0.9,0.6
					c-0.1,0.2-0.1,0.3-0.1,0.6h2C209.6,69.4,209.5,69.3,209.5,69.1z"/>
				<path d="M213.9,68.5v3.3h-0.6v-3.3h-0.5v-0.4h0.5v-0.7c0-0.6,0.3-1,1-1h0.4v0.5h-0.3c-0.4,0-0.5,0.2-0.5,0.6v0.7h0.8v0.4H213.9z
					"/>
				<path d="M217.9,71.5c-0.3,0.3-0.6,0.4-1.1,0.4c-0.5,0-0.8-0.2-1.1-0.4c-0.4-0.4-0.5-0.9-0.5-1.5c0-0.6,0.1-1.1,0.5-1.5
					c0.3-0.3,0.6-0.4,1.1-0.4c0.5,0,0.8,0.2,1.1,0.4c0.4,0.4,0.5,0.9,0.5,1.5C218.4,70.5,218.3,71.1,217.9,71.5z M217.5,68.8
					c-0.2-0.2-0.4-0.3-0.7-0.3c-0.3,0-0.5,0.1-0.7,0.3c-0.3,0.3-0.3,0.7-0.3,1.2c0,0.4,0,0.9,0.3,1.2c0.2,0.2,0.4,0.3,0.7,0.3
					c0.3,0,0.5-0.1,0.7-0.3c0.3-0.3,0.3-0.7,0.3-1.2C217.8,69.5,217.8,69.1,217.5,68.8z"/>
				<path d="M221.7,68.8c-0.2-0.2-0.4-0.3-0.7-0.3c-0.6,0-0.9,0.4-0.9,1v2.3h-0.6v-3.8h0.6v0.5c0.2-0.3,0.6-0.5,1.1-0.5
					c0.4,0,0.6,0.1,0.9,0.4L221.7,68.8z"/>
				<path d="M228,71.8l-0.4-1.2h-2.4l-0.4,1.2h-0.6l2-5.5h0.5l2,5.5H228z M226.3,67.2l-1,2.9h2L226.3,67.2z"/>
				<path d="M231.8,71.8v-0.4c-0.3,0.3-0.6,0.5-1.1,0.5c-0.4,0-0.7-0.1-1-0.4c-0.3-0.3-0.4-0.6-0.4-1.1v-2.4h0.6v2.3
					c0,0.7,0.4,1,0.9,1c0.6,0,0.9-0.3,0.9-1v-2.3h0.6v3.8H231.8z"/>
				<path d="M234.9,71.9c-0.6,0-1.1-0.1-1.5-0.5l0.4-0.4c0.3,0.3,0.7,0.4,1.2,0.4c0.6,0,1-0.2,1-0.7c0-0.3-0.2-0.5-0.6-0.6l-0.6-0.1
					c-0.7-0.1-1.1-0.4-1.1-1c0-0.7,0.6-1.1,1.4-1.1c0.5,0,1,0.1,1.4,0.4l-0.4,0.4c-0.3-0.2-0.6-0.3-1-0.3c-0.6,0-0.8,0.2-0.8,0.6
					c0,0.3,0.2,0.5,0.7,0.6l0.6,0.1c0.7,0.1,1.1,0.3,1.1,1C236.4,71.5,235.8,71.9,234.9,71.9z"/>
				<path d="M238.5,71.8c-0.6,0-1-0.5-1-1v-2.3H237v-0.4h0.5v-1.2h0.6v1.2h0.8v0.4H238v2.3c0,0.3,0.2,0.6,0.5,0.6h0.3v0.5H238.5z"/>
				<path d="M242.1,68.8c-0.2-0.2-0.4-0.3-0.7-0.3c-0.6,0-0.9,0.4-0.9,1v2.3H240v-3.8h0.6v0.5c0.2-0.3,0.6-0.5,1.1-0.5
					c0.4,0,0.6,0.1,0.9,0.4L242.1,68.8z"/>
				<path d="M245.2,71.8v-0.4c-0.3,0.3-0.6,0.4-1.1,0.4c-0.5,0-0.8-0.1-1.1-0.3c-0.2-0.2-0.3-0.5-0.3-0.8c0-0.7,0.5-1.1,1.3-1.1h1.1
					v-0.4c0-0.6-0.3-0.8-1-0.8c-0.5,0-0.7,0.1-1,0.4l-0.4-0.3c0.3-0.4,0.7-0.6,1.3-0.6c1,0,1.5,0.4,1.5,1.3v2.6H245.2z M245.2,70.1
					h-1.1c-0.6,0-0.8,0.2-0.8,0.7c0,0.4,0.3,0.6,0.9,0.6c0.3,0,0.6,0,0.8-0.3c0.1-0.1,0.2-0.3,0.2-0.7V70.1z"/>
				<path d="M248.1,71.8c-0.7,0-1-0.4-1-1v-4.5h0.6v4.4c0,0.4,0.1,0.6,0.5,0.6h0.3v0.5H248.1z"/>
				<path d="M249.7,67c-0.2,0-0.4-0.2-0.4-0.4c0-0.2,0.2-0.4,0.4-0.4c0.2,0,0.4,0.2,0.4,0.4C250.1,66.9,249.9,67,249.7,67z
					 M249.4,71.8v-3.8h0.6v3.8H249.4z"/>
				<path d="M253.5,71.8v-0.4c-0.3,0.3-0.6,0.4-1.1,0.4c-0.5,0-0.8-0.1-1.1-0.3c-0.2-0.2-0.3-0.5-0.3-0.8c0-0.7,0.5-1.1,1.3-1.1h1.1
					v-0.4c0-0.6-0.3-0.8-1-0.8c-0.5,0-0.7,0.1-1,0.4l-0.4-0.3c0.3-0.4,0.7-0.6,1.3-0.6c1,0,1.5,0.4,1.5,1.3v2.6H253.5z M253.5,70.1
					h-1.1c-0.6,0-0.8,0.2-0.8,0.7c0,0.4,0.3,0.6,0.9,0.6c0.3,0,0.6,0,0.8-0.3c0.1-0.1,0.2-0.3,0.2-0.7V70.1z"/>
			</g>
		</g>
		<g>
			<polygon class="st0" points="254.2,51.4 243.7,56 243.7,43.1 254.2,38.6 			"/>
			<polygon class="st1" points="233.3,51.4 243.7,56 243.7,43.1 233.3,38.6 			"/>
			<polygon class="st2" points="254.2,38.6 243.7,43.1 233.3,38.6 243.7,34 			"/>
			<polygon class="st0" points="243.7,34 233.3,38.6 233.3,25.7 243.7,21.1 			"/>
			<polygon class="st1" points="222.8,34 233.3,38.6 233.3,25.7 222.8,21.1 			"/>
			<polygon class="st1" points="243.7,21.1 233.3,25.7 222.8,21.1 233.3,16.5 			"/>
		</g>
	</g>
	<g>
		<path class="st3" d="M23.9,69.6h-2.8l-0.3,0.8c-0.1,0.3-0.2,0.5-0.2,0.6c0,0.2,0.1,0.4,0.3,0.5c0.1,0.1,0.4,0.1,0.8,0.1v0.2h-2.6
			v-0.2c0.3,0,0.5-0.2,0.7-0.3c0.2-0.2,0.4-0.6,0.7-1.2l2.8-6.3h0.1l2.8,6.5c0.3,0.6,0.5,1,0.7,1.2c0.1,0.1,0.3,0.2,0.6,0.2v0.2
			h-3.8v-0.2h0.2c0.3,0,0.5,0,0.6-0.1c0.1-0.1,0.1-0.2,0.1-0.3c0-0.1,0-0.1,0-0.2c0,0-0.1-0.2-0.2-0.4L23.9,69.6L23.9,69.6z
			 M23.7,69.1l-1.2-2.7l-1.2,2.7H23.7L23.7,69.1z"/>
		<path d="M32.2,66.4v4.2c0,0.4,0,0.7,0.1,0.8c0.1,0.1,0.2,0.2,0.5,0.2v0.2h-2.2v-0.7c-0.3,0.3-0.5,0.5-0.8,0.7
			C29.6,71.9,29.3,72,29,72c-0.3,0-0.6-0.1-0.8-0.3c-0.2-0.2-0.4-0.4-0.5-0.7c-0.1-0.3-0.1-0.7-0.1-1.3v-2.2c0-0.4,0-0.7-0.1-0.8
			c-0.1-0.1-0.2-0.2-0.5-0.2v-0.2h2.2v3.7c0,0.4,0,0.6,0.1,0.7c0,0.1,0.1,0.2,0.2,0.3c0.1,0.1,0.2,0.1,0.3,0.1c0.1,0,0.3,0,0.4-0.1
			c0.2-0.1,0.3-0.3,0.6-0.6v-2.9c0-0.4,0-0.7-0.1-0.8c-0.1-0.1-0.2-0.2-0.5-0.2v-0.2H32.2L32.2,66.4z"/>
		<path d="M36.6,66.2l0.1,1.9h-0.2c-0.2-0.5-0.5-0.9-0.7-1.1c-0.3-0.2-0.5-0.3-0.8-0.3c-0.2,0-0.3,0.1-0.4,0.2
			c-0.1,0.1-0.2,0.2-0.2,0.4c0,0.1,0,0.2,0.1,0.3c0.1,0.2,0.5,0.4,1,0.8c0.6,0.4,0.9,0.7,1.1,1c0.2,0.3,0.3,0.6,0.3,0.9
			c0,0.3-0.1,0.6-0.2,0.9c-0.2,0.3-0.4,0.5-0.6,0.7c-0.3,0.2-0.6,0.2-0.9,0.2c-0.3,0-0.6-0.1-1-0.2c-0.1,0-0.2-0.1-0.2-0.1
			c-0.1,0-0.2,0.1-0.3,0.3h-0.2L33.3,70h0.2c0.2,0.5,0.4,0.9,0.7,1.1c0.3,0.3,0.6,0.4,0.9,0.4c0.2,0,0.3-0.1,0.5-0.2
			c0.1-0.1,0.2-0.3,0.2-0.4c0-0.2-0.1-0.3-0.2-0.5c-0.1-0.1-0.4-0.3-0.8-0.6c-0.6-0.4-1-0.7-1.1-0.9c-0.3-0.3-0.4-0.7-0.4-1.1
			c0-0.4,0.1-0.8,0.4-1.1c0.3-0.3,0.7-0.5,1.3-0.5c0.3,0,0.6,0.1,0.9,0.2c0.1,0.1,0.2,0.1,0.3,0.1c0.1,0,0.1,0,0.2,0
			c0,0,0.1-0.1,0.2-0.2H36.6L36.6,66.2z"/>
		<path d="M39.5,64.4v2h1.3v0.6h-1.3v3.3c0,0.3,0,0.5,0,0.6c0,0.1,0.1,0.2,0.2,0.2c0.1,0.1,0.1,0.1,0.2,0.1c0.3,0,0.5-0.2,0.7-0.6
			l0.2,0.1c-0.3,0.7-0.8,1.1-1.5,1.1c-0.3,0-0.6-0.1-0.9-0.3c-0.2-0.2-0.4-0.4-0.5-0.6c0-0.1-0.1-0.5-0.1-1.1v-2.9h-0.7v-0.2
			c0.5-0.3,0.9-0.7,1.2-1.1c0.3-0.4,0.6-0.8,0.9-1.3H39.5L39.5,64.4z"/>
		<path d="M43.4,66.4v1.2c0.4-0.6,0.7-0.9,0.9-1.1c0.3-0.2,0.5-0.3,0.8-0.3c0.2,0,0.4,0.1,0.5,0.2c0.1,0.1,0.2,0.3,0.2,0.6
			c0,0.3-0.1,0.5-0.2,0.6c-0.1,0.1-0.3,0.2-0.5,0.2c-0.2,0-0.4-0.1-0.5-0.2c-0.2-0.1-0.2-0.2-0.3-0.2c0,0-0.1,0-0.1,0
			c-0.1,0-0.2,0-0.3,0.1c-0.2,0.1-0.3,0.3-0.4,0.6c-0.1,0.4-0.2,0.8-0.2,1.2v1.2l0,0.3c0,0.2,0,0.4,0,0.4c0,0.1,0.1,0.2,0.2,0.2
			c0.1,0,0.2,0.1,0.5,0.1v0.2h-2.9v-0.2c0.2,0,0.4-0.1,0.5-0.2c0.1-0.1,0.1-0.4,0.1-0.9v-3c0-0.3,0-0.5,0-0.6c0-0.1-0.1-0.2-0.2-0.2
			c-0.1-0.1-0.2-0.1-0.4-0.1v-0.2H43.4L43.4,66.4z"/>
		<path class="st3" d="M48.9,71c-0.7,0.6-1.3,0.9-1.8,0.9c-0.3,0-0.6-0.1-0.8-0.3c-0.2-0.2-0.3-0.5-0.3-0.8c0-0.4,0.2-0.8,0.5-1.1
			c0.4-0.3,1.1-0.8,2.3-1.3v-0.5c0-0.4,0-0.7-0.1-0.8c0-0.1-0.1-0.2-0.2-0.3c-0.1-0.1-0.3-0.1-0.4-0.1c-0.3,0-0.5,0.1-0.6,0.2
			c-0.1,0.1-0.2,0.2-0.2,0.2c0,0.1,0.1,0.2,0.2,0.3c0.1,0.2,0.2,0.3,0.2,0.5c0,0.2-0.1,0.4-0.2,0.5c-0.1,0.1-0.3,0.2-0.6,0.2
			c-0.2,0-0.4-0.1-0.6-0.2c-0.2-0.1-0.2-0.3-0.2-0.5c0-0.3,0.1-0.5,0.3-0.8c0.2-0.3,0.5-0.5,0.9-0.6c0.4-0.1,0.8-0.2,1.2-0.2
			c0.5,0,0.9,0.1,1.2,0.3c0.3,0.2,0.5,0.5,0.6,0.7c0.1,0.2,0.1,0.5,0.1,1.1v2.1c0,0.2,0,0.4,0,0.5c0,0.1,0,0.1,0.1,0.1
			c0,0,0.1,0,0.1,0c0.1,0,0.2-0.1,0.3-0.2l0.2,0.1c-0.2,0.3-0.4,0.5-0.6,0.6c-0.2,0.1-0.4,0.2-0.7,0.2c-0.3,0-0.6-0.1-0.7-0.2
			C49,71.5,48.9,71.3,48.9,71L48.9,71z M48.9,70.6v-1.8c-0.5,0.3-0.8,0.6-1,0.9c-0.2,0.2-0.2,0.4-0.2,0.6c0,0.2,0.1,0.3,0.2,0.5
			c0.1,0.1,0.2,0.2,0.4,0.2C48.4,70.9,48.6,70.8,48.9,70.6L48.9,70.6z"/>
		<path d="M53.6,63.9v6.7c0,0.4,0,0.6,0.1,0.7c0.1,0.1,0.3,0.2,0.5,0.2v0.2h-2.9v-0.2c0.2,0,0.4-0.1,0.5-0.2
			c0.1-0.1,0.1-0.3,0.1-0.7V65c0-0.4,0-0.6-0.1-0.7c-0.1-0.1-0.3-0.2-0.5-0.2v-0.2H53.6L53.6,63.9z"/>
		<path class="st3" d="M56,63.7c0.3,0,0.5,0.1,0.6,0.3c0.2,0.2,0.3,0.4,0.3,0.6c0,0.2-0.1,0.5-0.3,0.6c-0.2,0.2-0.4,0.3-0.6,0.3
			c-0.2,0-0.5-0.1-0.6-0.3c-0.2-0.2-0.3-0.4-0.3-0.6c0-0.2,0.1-0.5,0.3-0.6C55.6,63.8,55.8,63.7,56,63.7L56,63.7z M56.9,66.4v4.3
			c0,0.4,0,0.6,0.1,0.7c0.1,0.1,0.3,0.2,0.5,0.2v0.2h-2.9v-0.2c0.2,0,0.4-0.1,0.5-0.2c0.1-0.1,0.1-0.3,0.1-0.7v-3.2
			c0-0.4,0-0.6-0.1-0.7c-0.1-0.1-0.3-0.2-0.5-0.2v-0.2H56.9L56.9,66.4z"/>
		<path class="st3" d="M60.7,71c-0.7,0.6-1.3,0.9-1.8,0.9c-0.3,0-0.6-0.1-0.8-0.3c-0.2-0.2-0.3-0.5-0.3-0.8c0-0.4,0.2-0.8,0.5-1.1
			c0.4-0.3,1.1-0.8,2.3-1.3v-0.5c0-0.4,0-0.7-0.1-0.8c0-0.1-0.1-0.2-0.2-0.3c-0.1-0.1-0.3-0.1-0.4-0.1c-0.3,0-0.5,0.1-0.6,0.2
			c-0.1,0.1-0.2,0.2-0.2,0.2c0,0.1,0.1,0.2,0.2,0.3c0.1,0.2,0.2,0.3,0.2,0.5c0,0.2-0.1,0.4-0.2,0.5c-0.1,0.1-0.3,0.2-0.6,0.2
			c-0.2,0-0.4-0.1-0.6-0.2c-0.2-0.1-0.2-0.3-0.2-0.5c0-0.3,0.1-0.5,0.3-0.8c0.2-0.3,0.5-0.5,0.9-0.6c0.4-0.1,0.8-0.2,1.2-0.2
			c0.5,0,0.9,0.1,1.2,0.3c0.3,0.2,0.5,0.5,0.6,0.7c0.1,0.2,0.1,0.5,0.1,1.1v2.1c0,0.2,0,0.4,0,0.5c0,0.1,0,0.1,0.1,0.1
			c0,0,0.1,0,0.1,0c0.1,0,0.2-0.1,0.3-0.2L63,71c-0.2,0.3-0.4,0.5-0.6,0.6c-0.2,0.1-0.4,0.2-0.7,0.2c-0.3,0-0.6-0.1-0.7-0.2
			C60.8,71.5,60.7,71.3,60.7,71L60.7,71z M60.7,70.6v-1.8c-0.5,0.3-0.8,0.6-1,0.9c-0.2,0.2-0.2,0.4-0.2,0.6c0,0.2,0.1,0.3,0.2,0.5
			c0.1,0.1,0.2,0.2,0.4,0.2C60.2,70.9,60.4,70.8,60.7,70.6L60.7,70.6z"/>
		<path d="M65.4,66.4v0.7c0.3-0.3,0.5-0.5,0.8-0.7c0.3-0.1,0.5-0.2,0.8-0.2c0.4,0,0.6,0.1,0.9,0.3c0.2,0.2,0.4,0.4,0.5,0.7
			c0.1,0.2,0.1,0.6,0.1,1.3v2.1c0,0.4,0,0.7,0.1,0.8c0.1,0.1,0.2,0.2,0.5,0.2v0.2h-2.7v-0.2c0.2,0,0.4-0.1,0.4-0.3
			c0.1-0.1,0.1-0.3,0.1-0.7v-2.4c0-0.4,0-0.7-0.1-0.8c0-0.1-0.1-0.2-0.2-0.3C66.5,67,66.4,67,66.3,67c-0.3,0-0.6,0.2-0.9,0.7v2.9
			c0,0.4,0,0.7,0.1,0.8c0.1,0.1,0.2,0.2,0.4,0.2v0.2h-2.7v-0.2c0.2,0,0.4-0.1,0.5-0.2c0.1-0.1,0.1-0.3,0.1-0.8v-3.1
			c0-0.4,0-0.7-0.1-0.8c-0.1-0.1-0.2-0.2-0.5-0.2v-0.2H65.4L65.4,66.4z"/>
		<path d="M79.7,63.7v2.8h-0.2c-0.3-0.8-0.6-1.3-1.2-1.7c-0.5-0.4-1.1-0.6-1.7-0.6c-0.6,0-1.1,0.2-1.5,0.5c-0.4,0.3-0.7,0.8-0.8,1.4
			c-0.2,0.6-0.2,1.2-0.2,1.8c0,0.8,0.1,1.4,0.3,2c0.2,0.6,0.5,1,0.9,1.3c0.4,0.3,0.9,0.4,1.4,0.4c0.2,0,0.4,0,0.6-0.1
			c0.2,0,0.4-0.1,0.6-0.2v-1.6c0-0.3,0-0.5-0.1-0.6c0-0.1-0.1-0.2-0.3-0.2c-0.1-0.1-0.3-0.1-0.5-0.1h-0.2v-0.2h3.8v0.2
			c-0.3,0-0.5,0.1-0.6,0.1c-0.1,0.1-0.2,0.2-0.3,0.3c0,0.1-0.1,0.3-0.1,0.5v1.6c-0.5,0.2-1,0.4-1.6,0.5C77.6,71.9,77,72,76.4,72
			c-0.7,0-1.4-0.1-1.9-0.3c-0.5-0.2-0.9-0.5-1.3-0.8c-0.4-0.3-0.7-0.7-0.9-1.1C72.1,69.2,72,68.6,72,68c0-1.2,0.4-2.2,1.2-3
			c0.8-0.8,1.9-1.2,3.1-1.2c0.4,0,0.7,0,1.1,0.1c0.2,0,0.4,0.1,0.8,0.3c0.4,0.1,0.6,0.2,0.7,0.2c0.1,0,0.2,0,0.3-0.1
			c0.1-0.1,0.2-0.2,0.3-0.5H79.7L79.7,63.7z"/>
		<path class="st3" d="M83.5,66.2c0.5,0,0.9,0.1,1.3,0.4c0.4,0.2,0.7,0.6,0.9,1c0.2,0.4,0.3,0.9,0.3,1.5c0,0.8-0.2,1.4-0.6,1.9
			c-0.5,0.6-1.1,0.9-2,0.9c-0.8,0-1.4-0.3-1.9-0.9c-0.4-0.6-0.7-1.2-0.7-2c0-0.8,0.2-1.5,0.7-2C82.1,66.5,82.7,66.2,83.5,66.2
			L83.5,66.2z M83.5,66.6c-0.2,0-0.4,0.1-0.5,0.2c-0.1,0.1-0.2,0.4-0.3,0.9c0,0.4-0.1,1-0.1,1.8c0,0.4,0,0.8,0.1,1.2
			c0,0.3,0.1,0.5,0.3,0.6c0.1,0.1,0.3,0.2,0.5,0.2c0.2,0,0.3,0,0.4-0.1c0.2-0.1,0.3-0.3,0.3-0.6c0.1-0.4,0.1-1.1,0.1-2.2
			c0-0.7,0-1.1-0.1-1.4c-0.1-0.2-0.2-0.4-0.3-0.5C83.8,66.7,83.6,66.6,83.5,66.6L83.5,66.6z"/>
		<path d="M88.6,72l-1.8-4.2c-0.2-0.5-0.4-0.8-0.5-1c-0.1-0.1-0.2-0.2-0.4-0.2v-0.2h2.9v0.2c-0.2,0-0.3,0-0.4,0.1
			c-0.1,0.1-0.1,0.2-0.1,0.3c0,0.1,0.1,0.4,0.3,0.8l0.9,2l0.7-1.8c0.2-0.5,0.3-0.9,0.3-1.1c0-0.1,0-0.2-0.1-0.3
			c-0.1-0.1-0.2-0.1-0.5-0.1v-0.2h1.8v0.2c-0.2,0-0.3,0.1-0.4,0.2c-0.1,0.1-0.3,0.4-0.5,0.9L88.9,72H88.6L88.6,72z"/>
		<path class="st3" d="M95.8,68.9h-3c0,0.7,0.2,1.3,0.6,1.7c0.3,0.3,0.6,0.5,1,0.5c0.2,0,0.4-0.1,0.6-0.2c0.2-0.1,0.4-0.4,0.6-0.7
			l0.2,0.1c-0.3,0.6-0.6,1-1,1.3c-0.4,0.2-0.8,0.4-1.2,0.4c-0.8,0-1.4-0.3-1.8-0.9c-0.3-0.5-0.5-1.1-0.5-1.9c0-0.9,0.2-1.6,0.7-2.2
			c0.5-0.5,1.1-0.8,1.7-0.8c0.5,0,1,0.2,1.4,0.7C95.6,67.3,95.8,68,95.8,68.9L95.8,68.9z M94.4,68.5c0-0.6,0-1-0.1-1.3
			c-0.1-0.2-0.2-0.4-0.3-0.5c-0.1-0.1-0.2-0.1-0.3-0.1c-0.2,0-0.4,0.1-0.5,0.3c-0.2,0.3-0.3,0.8-0.3,1.4v0.2H94.4L94.4,68.5z"/>
		<path d="M98.4,66.4v1.2c0.4-0.6,0.7-0.9,0.9-1.1c0.3-0.2,0.5-0.3,0.8-0.3c0.2,0,0.4,0.1,0.5,0.2c0.1,0.1,0.2,0.3,0.2,0.6
			c0,0.3-0.1,0.5-0.2,0.6c-0.1,0.1-0.3,0.2-0.5,0.2c-0.2,0-0.4-0.1-0.5-0.2c-0.2-0.1-0.2-0.2-0.3-0.2c0,0-0.1,0-0.1,0
			c-0.1,0-0.2,0-0.3,0.1c-0.2,0.1-0.3,0.3-0.4,0.6c-0.1,0.4-0.2,0.8-0.2,1.2v1.2l0,0.3c0,0.2,0,0.4,0,0.4c0,0.1,0.1,0.2,0.2,0.2
			c0.1,0,0.2,0.1,0.5,0.1v0.2h-2.9v-0.2c0.2,0,0.4-0.1,0.5-0.2c0.1-0.1,0.1-0.4,0.1-0.9v-3c0-0.3,0-0.5,0-0.6c0-0.1-0.1-0.2-0.2-0.2
			c-0.1-0.1-0.2-0.1-0.4-0.1v-0.2H98.4L98.4,66.4z"/>
		<path d="M103.4,66.4v0.7c0.3-0.3,0.5-0.5,0.8-0.7c0.3-0.1,0.5-0.2,0.8-0.2c0.4,0,0.6,0.1,0.9,0.3c0.2,0.2,0.4,0.4,0.5,0.7
			c0.1,0.2,0.1,0.6,0.1,1.3v2.1c0,0.4,0,0.7,0.1,0.8c0.1,0.1,0.2,0.2,0.5,0.2v0.2h-2.7v-0.2c0.2,0,0.4-0.1,0.4-0.3
			c0.1-0.1,0.1-0.3,0.1-0.7v-2.4c0-0.4,0-0.7-0.1-0.8c0-0.1-0.1-0.2-0.2-0.3c-0.1-0.1-0.2-0.1-0.3-0.1c-0.3,0-0.6,0.2-0.9,0.7v2.9
			c0,0.4,0,0.7,0.1,0.8c0.1,0.1,0.2,0.2,0.4,0.2v0.2h-2.7v-0.2c0.2,0,0.4-0.1,0.5-0.2c0.1-0.1,0.1-0.3,0.1-0.8v-3.1
			c0-0.4,0-0.7-0.1-0.8c-0.1-0.1-0.2-0.2-0.5-0.2v-0.2H103.4L103.4,66.4z"/>
		<path d="M109.7,66.4v0.7c0.3-0.3,0.6-0.6,0.8-0.7c0.3-0.1,0.5-0.2,0.8-0.2c0.3,0,0.6,0.1,0.9,0.2c0.2,0.2,0.4,0.4,0.5,0.7
			c0.3-0.3,0.6-0.6,0.9-0.8c0.3-0.2,0.6-0.2,0.9-0.2c0.4,0,0.7,0.1,0.9,0.3c0.2,0.2,0.4,0.4,0.5,0.7c0.1,0.3,0.1,0.7,0.1,1.3v2.2
			c0,0.4,0,0.7,0.1,0.8c0.1,0.1,0.2,0.2,0.5,0.2v0.2h-2.8v-0.2c0.2,0,0.4-0.1,0.5-0.3c0.1-0.1,0.1-0.3,0.1-0.7v-2.3
			c0-0.5,0-0.8-0.1-0.9c0-0.1-0.1-0.2-0.2-0.3c-0.1-0.1-0.2-0.1-0.3-0.1c-0.2,0-0.3,0.1-0.5,0.2c-0.2,0.1-0.3,0.3-0.5,0.5v2.9
			c0,0.4,0,0.6,0.1,0.7c0.1,0.1,0.3,0.2,0.5,0.2v0.2h-2.8v-0.2c0.2,0,0.3,0,0.4-0.1c0.1-0.1,0.1-0.2,0.2-0.2c0-0.1,0-0.3,0-0.6v-2.3
			c0-0.5,0-0.8-0.1-0.9c0-0.1-0.1-0.2-0.2-0.3c-0.1-0.1-0.2-0.1-0.3-0.1c-0.2,0-0.3,0-0.4,0.1c-0.2,0.1-0.4,0.3-0.6,0.6v2.9
			c0,0.4,0,0.6,0.1,0.8c0.1,0.1,0.2,0.2,0.5,0.2v0.2h-2.8v-0.2c0.2,0,0.4-0.1,0.5-0.2c0.1-0.1,0.1-0.3,0.1-0.8v-3.1
			c0-0.4,0-0.7-0.1-0.8c-0.1-0.1-0.2-0.2-0.5-0.2v-0.2H109.7L109.7,66.4z"/>
		<path class="st3" d="M121.5,68.9h-3c0,0.7,0.2,1.3,0.6,1.7c0.3,0.3,0.6,0.5,1,0.5c0.2,0,0.4-0.1,0.6-0.2c0.2-0.1,0.4-0.4,0.6-0.7
			l0.2,0.1c-0.3,0.6-0.6,1-1,1.3c-0.4,0.2-0.8,0.4-1.2,0.4c-0.8,0-1.4-0.3-1.8-0.9c-0.3-0.5-0.5-1.1-0.5-1.9c0-0.9,0.2-1.6,0.7-2.2
			c0.5-0.5,1.1-0.8,1.7-0.8c0.5,0,1,0.2,1.4,0.7C121.2,67.3,121.4,68,121.5,68.9L121.5,68.9z M120,68.5c0-0.6,0-1-0.1-1.3
			c-0.1-0.2-0.2-0.4-0.3-0.5c-0.1-0.1-0.2-0.1-0.3-0.1c-0.2,0-0.4,0.1-0.5,0.3c-0.2,0.3-0.3,0.8-0.3,1.4v0.2H120L120,68.5z"/>
		<path d="M123.9,66.4v0.7c0.3-0.3,0.5-0.5,0.8-0.7c0.3-0.1,0.5-0.2,0.8-0.2c0.4,0,0.6,0.1,0.9,0.3c0.2,0.2,0.4,0.4,0.5,0.7
			c0.1,0.2,0.1,0.6,0.1,1.3v2.1c0,0.4,0,0.7,0.1,0.8c0.1,0.1,0.2,0.2,0.5,0.2v0.2h-2.7v-0.2c0.2,0,0.4-0.1,0.4-0.3
			c0.1-0.1,0.1-0.3,0.1-0.7v-2.4c0-0.4,0-0.7-0.1-0.8c0-0.1-0.1-0.2-0.2-0.3c-0.1-0.1-0.2-0.1-0.3-0.1c-0.3,0-0.6,0.2-0.9,0.7v2.9
			c0,0.4,0,0.7,0.1,0.8c0.1,0.1,0.2,0.2,0.4,0.2v0.2h-2.7v-0.2c0.2,0,0.4-0.1,0.5-0.2c0.1-0.1,0.1-0.3,0.1-0.8v-3.1
			c0-0.4,0-0.7-0.1-0.8c-0.1-0.1-0.2-0.2-0.5-0.2v-0.2H123.9L123.9,66.4z"/>
		<path d="M129.8,64.4v2h1.3v0.6h-1.3v3.3c0,0.3,0,0.5,0,0.6c0,0.1,0.1,0.2,0.2,0.2c0.1,0.1,0.1,0.1,0.2,0.1c0.3,0,0.5-0.2,0.7-0.6
			l0.2,0.1c-0.3,0.7-0.8,1.1-1.5,1.1c-0.3,0-0.6-0.1-0.9-0.3c-0.2-0.2-0.4-0.4-0.5-0.6c0-0.1-0.1-0.5-0.1-1.1v-2.9h-0.7v-0.2
			c0.5-0.3,0.9-0.7,1.2-1.1c0.3-0.4,0.6-0.8,0.9-1.3H129.8L129.8,64.4z"/>
		<path d="M65.7,49.9c0,0.1-0.1,0.1-0.1,0.1"/>
		<path d="M67.1,39.3c0.2,0,0.3-0.1,0.3-0.3c0-0.2-0.1-0.3-0.3-0.3c-0.2,0-0.3,0.1-0.3,0.3C66.8,39.1,66.9,39.3,67.1,39.3L67.1,39.3
			z"/>
		<path d="M80.2,27.3L80.2,27.3l-10.2,0v0h0l0,8.3c0,0.8,0.3,1.5,0.8,1.7l3.9,2.4c0.1,0.1,0.2,0.2,0.4,0.2c0.1,0,0.2,0,0.3-0.1
			l4-2.4c0.5-0.2,0.8-0.9,0.8-1.7L80.2,27.3L80.2,27.3L80.2,27.3z M73.4,29.7h-0.9v-2.1h0.9V29.7L73.4,29.7z M72.7,30.4l0.1-0.1
			l-0.1-0.1l0.2,0l0.1-0.2l0.1,0.2l0.2,0l-0.1,0.1l0.1,0.1l-0.2,0v0.2l-0.2-0.1l-0.2,0.1v-0.2L72.7,30.4L72.7,30.4z M70.3,33v-2h1.1
			v2H70.3L70.3,33z M70.5,30.1l0.2,0l0.1-0.2l0.1,0.2l0.2,0l-0.1,0.1l0.1,0.1l-0.2,0v0.2l-0.2-0.1l-0.2,0.1v-0.2l-0.2,0l0.1-0.1
			L70.5,30.1L70.5,30.1z M71.7,32.2l0.2,0l0.1-0.2l0.1,0.2l0.2,0l-0.1,0.1l0.1,0.1l-0.2,0v0.2l-0.2-0.1l-0.2,0.1v-0.2l-0.2,0
			l0.1-0.1L71.7,32.2L71.7,32.2z M72.4,30.6c0-0.1-0.1-0.1-0.1-0.1c-0.1,0-0.1,0.2-0.2,0.2c-0.1,0-0.1,0-0.1-0.1
			c0-0.1,0.1-0.1,0.2-0.1c-0.7,0-0.7,0.3-0.8,0.3c-0.2,0,0.1-0.3,0.2-0.4c-0.1,0-0.2-0.2-0.4-0.3c0.1-0.1,0.1-0.1,0.2,0
			c0-0.1,0.1-0.2,0.2-0.2c0.3,0,0.2,0.3,0.3,0.3c0,0,0-0.3,0.2-0.3c0.3,0,0.7,0.8,0.3,0.8C72.3,30.7,72.4,30.6,72.4,30.6L72.4,30.6z
			 M71.6,28.3l0.1-0.1l-0.1-0.1l0.2,0l0.1-0.2l0.1,0.2l0.2,0l-0.1,0.1l0.1,0.1l-0.2,0v0.2l-0.2-0.1l-0.2,0.1v-0.2L71.6,28.3
			L71.6,28.3z M71.4,27.5v2.1h-1.1v-2.1H71.4L71.4,27.5z M73.4,38.5L70.9,37c-0.4-0.3-0.6-0.8-0.7-1.4v-2.3h3.1V38.5L73.4,38.5z
			 M72.5,33v-2h0.9v2H72.5L72.5,33z M76.5,38.6l-1.1,0.7h0c-0.1,0.1-0.2,0.1-0.3,0.1c-0.1,0-0.2,0-0.3-0.1l-1.1-0.7v-5.3h2.9V38.6
			L76.5,38.6z M76.5,33h-2.9v-5.5h2.9V33L76.5,33z M79.9,35.6c-0.1,0.6-0.3,1.1-0.7,1.4l-2.4,1.5v-5.2h3.1V35.6L79.9,35.6z M79.9,33
			h-3.1v-5.5h3.1V33L79.9,33z"/>
		<path d="M73.2,35.2c0,0-0.4,0.1-0.3,0.1c0-0.1,0.2-0.3,0.3-0.4c0-0.1-0.2,0-0.4,0.1c0.6-0.8,0.2-0.5-0.1-0.4
			c0.5-0.6,0.4-0.6,0-0.4c0.3-0.2,0.4-0.5,0.3-0.6c-0.3,0.4-0.5,0.3-0.5,0.7c0,0.2-0.1,0.6-0.2,0.7c-0.2,0.2,0-0.6-0.4-0.6
			c-0.1,0-0.4,0-0.5,0.1c0.1,0,0.2,0.2,0.2,0.3c0,0.1,0.1,0.3-0.1,0.3c-0.1,0-0.3-0.3-0.3-0.4c0-0.1,0-0.1,0-0.3
			c0-0.3-0.5-0.8-0.8-0.8c0,0.2,0.3,0.3,0.3,0.6c-0.1,0-0.3-0.2-0.3-0.1s0.2,0.2,0.2,0.3s-0.2,0-0.2,0.1c0,0.1,0.1,0.1,0.1,0.2
			c-0.1,0-0.2,0-0.2,0c0,0,0,0.1,0.1,0.1c0,0-0.1,0.1-0.1,0.3c0,0.7,0.4,1,0.7,1c0.2,0,0.2-0.1,0.2-0.2c0,0.1,0.1-0.1,0.1,0.1
			c0,0.2-0.2,0.1-0.2,0.3c0,0.2,0.3,0,0.3,0.2c0,0.3,0,0.3,0,0.4c0,0.1,0.3-0.1,0.3-0.1c0.1,0,0.1,0.3,0.2,0.3
			c0.1,0,0.1-0.2,0.2-0.3c0,0,0.3,0.2,0.3,0.1c0-0.3-0.1-0.2-0.1-0.4c0-0.2,0.4-0.2,0.4-0.3c-0.1-0.1-0.1,0-0.1-0.2
			c0,0-0.3-0.5,0.1-0.2C73.2,36.2,73.2,35.3,73.2,35.2L73.2,35.2z"/>
		<path d="M84.1,37.4c0.2,0,0.3-0.1,0.3-0.3c0-0.2-0.2-0.3-0.3-0.3c-0.2,0-0.3,0.1-0.3,0.3C83.8,37.2,84,37.4,84.1,37.4L84.1,37.4z"
			/>
		<path d="M82.8,38.2c0.2,0,0.3-0.1,0.3-0.3c0-0.2-0.2-0.3-0.3-0.3c-0.2,0-0.3,0.1-0.3,0.3C82.4,38,82.6,38.2,82.8,38.2L82.8,38.2z"
			/>
		<path d="M66.6,40c0.2,0,0.3-0.1,0.3-0.3c0-0.2-0.2-0.3-0.3-0.3c-0.2,0-0.3,0.1-0.3,0.3C66.3,39.9,66.4,40,66.6,40L66.6,40z"/>
		<path d="M67.7,40.1c0.2,0,0.3-0.1,0.3-0.3c0-0.2-0.2-0.3-0.3-0.3c-0.2,0-0.3,0.1-0.3,0.3C67.3,40,67.5,40.1,67.7,40.1L67.7,40.1z"
			/>
		<path d="M96.8,26c0.5,0.6,0.6,1.5,0.2,2.2c-0.2,0-0.2-0.3-0.2-0.4c-0.4-0.7-0.6-1.5-0.3-2.3C96.7,25.6,96.6,25.9,96.8,26L96.8,26z
			"/>
		<path d="M54,26.8c-0.1,0.4-0.1,1,0,1.4c-0.1,0.1-0.1-0.1-0.2-0.1c-0.7-0.5-0.4-1.5-0.6-2.2c0-0.1,0.1-0.1,0.2,0
			C53.8,26.2,54,26.5,54,26.8L54,26.8z"/>
		<path d="M98.3,26.9c0.1,0.2-0.1,0.4-0.2,0.5c-0.2,0-0.3-0.1-0.4-0.2c-0.1-0.2,0.1-0.4,0.2-0.5C98,26.7,98.2,26.7,98.3,26.9
			L98.3,26.9z"/>
		<path d="M53,27.7c0,0.2-0.1,0.3-0.2,0.4c-0.1,0-0.3,0-0.3-0.1c-0.1-0.1-0.1-0.3-0.1-0.4c0.1-0.1,0.2-0.1,0.3-0.2
			C52.8,27.5,52.9,27.5,53,27.7L53,27.7z"/>
		<path d="M99,28c0,0.1,0,0.2,0,0.3c-0.1,0.2-0.3,0.2-0.5,0.2c-0.1-0.1-0.2-0.2-0.2-0.3c0-0.1,0.2-0.3,0.3-0.3
			C98.8,27.8,98.9,27.9,99,28L99,28z"/>
		<path d="M98,28c0.1,0.1,0,0.3,0,0.4c-0.1,0.1-0.2,0.2-0.4,0.2c-0.1-0.1-0.2-0.1-0.2-0.2c0-0.2,0.1-0.4,0.2-0.4
			C97.8,27.9,97.9,27.9,98,28L98,28z"/>
		<path d="M96.7,28.3c0,0.2,0,0.4-0.2,0.5c-0.2,0.1-0.4-0.1-0.4-0.3c0-0.2,0.1-0.4,0.3-0.4C96.5,28.1,96.6,28.2,96.7,28.3L96.7,28.3
			z"/>
		<path d="M54.9,28.4c0.1,0.2-0.1,0.3-0.2,0.4c-0.1,0-0.3-0.1-0.4-0.2c-0.1-0.1,0-0.2,0.1-0.3C54.6,28,54.8,28.2,54.9,28.4
			L54.9,28.4z"/>
		<path d="M53.8,28.4c0,0.1-0.1,0.3-0.2,0.3c-0.1,0.1-0.3-0.1-0.4-0.2c-0.1-0.2,0-0.3,0.2-0.4C53.6,28.1,53.8,28.3,53.8,28.4
			L53.8,28.4z"/>
		<path d="M92.4,28.5c0.2,0.4,0.3,0.8,0.4,1.3c-0.1,0.3,0.1,0.8-0.2,1c-0.2-0.1-0.3-0.4-0.4-0.6c-0.3-0.6,0-1.4,0.1-2
			C92.3,28.2,92.3,28.4,92.4,28.5L92.4,28.5z"/>
		<path d="M53,28.7c0.1,0.2-0.1,0.3-0.2,0.4c-0.2,0.1-0.4-0.1-0.4-0.3c0-0.2,0.1-0.4,0.2-0.4C52.7,28.4,52.9,28.5,53,28.7L53,28.7z"
			/>
		<path d="M95.2,29.2c0.2,0.5,0.2,1.2,0.1,1.7L95.2,31c-0.2-0.5-0.6-0.9-0.7-1.5c0-0.4,0.1-0.7,0.2-1c0.1-0.1,0.2,0,0.2,0.1
			C94.9,28.9,95,29.1,95.2,29.2L95.2,29.2z"/>
		<path d="M97.4,28.9c0,0.2-0.1,0.4-0.3,0.4c-0.2,0-0.4,0-0.4-0.2c-0.1-0.2,0.1-0.3,0.2-0.4C97.1,28.6,97.3,28.8,97.4,28.9
			L97.4,28.9z"/>
		<path d="M53.8,29.5c0,0.1-0.1,0.3-0.3,0.3c-0.1,0.1-0.2-0.1-0.4-0.1c-0.1-0.1-0.1-0.3,0-0.4c0.1-0.1,0.2-0.1,0.3-0.1
			C53.7,29.2,53.8,29.3,53.8,29.5L53.8,29.5z"/>
		<path d="M54.6,29.4c0.1,0.2-0.1,0.3-0.2,0.4c-0.2,0.1-0.3-0.1-0.4-0.2c0-0.2,0.1-0.3,0.2-0.4C54.4,29.1,54.5,29.2,54.6,29.4
			L54.6,29.4z"/>
		<path d="M97.9,29.3c0,0.2-0.4,0.5-0.4,0.7c-0.2,0.5-0.6,0.8-1.1,1c-0.1,0.1-0.2,0.2-0.4,0.2c0-0.4,0.3-0.7,0.5-1
			C96.9,29.8,97.4,29.5,97.9,29.3L97.9,29.3z"/>
		<path d="M53.5,30.1c0.3,0.3,0.4,0.6,0.7,0.8c0,0.1,0,0.2-0.1,0.2c-0.9-0.1-1.5-1-1.9-1.6c0.1-0.2,0.3,0,0.4-0.1
			C52.9,29.7,53.3,29.8,53.5,30.1L53.5,30.1z"/>
		<path d="M98.2,30.3c0,0.8-0.4,1.6-1.1,1.9c-0.2,0.1-0.4,0.3-0.6,0.1c0.4-0.8,0.9-1.4,1.6-2.1H98.2L98.2,30.3z"/>
		<path d="M94.8,30.8c0.1,0.3-0.1,0.4-0.3,0.5c-0.2,0-0.3-0.1-0.4-0.3c0-0.2,0.1-0.3,0.2-0.4c0.1-0.1,0.1-0.1,0.2-0.1
			C94.6,30.7,94.7,30.7,94.8,30.8L94.8,30.8z"/>
		<path d="M52.5,31c0.3,0.2,0.6,0.6,1,0.8c-0.2,0.2-0.5,0-0.8,0c-0.6-0.2-1-0.7-1.6-0.9c0-0.2,0.2-0.1,0.4-0.2
			C51.8,30.7,52.1,30.9,52.5,31L52.5,31z"/>
		<path d="M71.6,25.7c-1-0.4-1.7,0.6-2.7,0.5c-0.1,0.1-0.1,0.2-0.2,0.3c-0.1,0.1-0.1,0-0.2,0c-0.1-0.4-0.2-0.8-0.2-1.2
			c-0.1-0.2-0.1-0.4-0.1-0.6c-0.6-1.6,1.4-0.4,1.8-1.3c0.3-0.8-0.7-0.9-1-1.4v-0.2c-0.3-0.3-0.6-0.4-0.8-0.8
			c0.1-0.4,0.2-0.9,0.1-1.4c0-0.1-0.1-0.3-0.2-0.2c-0.3,0.5-0.6,0.8-0.9,1.3c-0.3-0.3-0.7-0.6-1.1-0.8c-0.3,0-0.5-0.3-0.8-0.2
			c-0.1,0.1,0,0.2,0.1,0.3c0,0.7,0.4,1.3,0.9,1.8l0.1,0.3c-0.3,0.7-0.2,1.6-0.3,2.4c-0.8,2-2.1,4-3.9,5.4c-1,1.2-2.2,2.3-2.4,3.8
			c-0.1,0.3,0,0.6-0.2,0.7c-0.6-0.2-1.2-0.5-1.7-0.9c-0.8-0.6-2-0.5-2.5-1.5c-0.2-0.4,0.1-0.8,0.2-1.1c0.6-0.6,0.5-1.6,0.2-2.3
			c-0.1,0-0.1,0.1-0.1,0.1c-0.1,1.1-0.9,1.8-0.6,3c0.1,0.3,0.2,0.6,0.3,0.9c-0.1,0-0.3,0-0.4-0.1c-0.4-0.1-0.8-0.2-1.2-0.2
			c-0.8,0.4-1.9-0.1-2.6,0.7c-0.1,0-0.2,0-0.2,0.2c0.4,0,0.8,0.1,1.2,0.1c0.6,0.1,1-0.4,1.5-0.6h0.1c0.2-0.2,0.5-0.1,0.7-0.1
			c1.1,0.1,2,0.7,2.9,1.2v0.1c-0.4,0.2-0.8,0.3-1.1,0.5c-0.4,0.3-0.9,0.7-1,1.2c-0.3,0.4,0.1,0.8,0.3,1.2c0,0.2,0,0.4,0.2,0.5
			c0.6-0.6,0-1.4,0.1-2.1c0.1-0.5,0.6-0.8,1.2-0.9c1-0.4,1.7,0.4,2.6,0.9c0,0.8,0.1,1.6-0.1,2.4c-0.3,0.1-0.6,0.1-0.8,0.1
			c-1.4,0.1-2.5,0.9-3.8,1.3c-0.6,0.2-1.2,0.2-1.8,0.4c0.4,0.1,0.9,0,1.4-0.1c1.7-0.3,3.1-1.6,5-1.4l0,0.1c-0.2,0.4-0.5,0.8-0.8,1.2
			c-0.1-0.2-0.1-0.4-0.2-0.5c-0.1-0.1-0.3,0-0.4,0.1c-0.1,0.1-0.1,0.2,0,0.3c0.1,0.2,0.2,0.2,0.4,0.3c0,0.2-0.2,0.2-0.3,0.4
			c-0.5,0.8-1.5,0.5-2.1,1.1c-0.1,0.1-0.4,0.2-0.3,0.4c0.7,0.1,1.3-0.1,1.8-0.5c0.7-0.7,1.4-1.4,2-2.1c0.1,0.6-0.1,1.2-0.4,1.6
			c-0.2-0.1-0.3-0.2-0.5-0.3c-0.2,0-0.3,0.2-0.3,0.4c0.1,0.1,0.1,0.3,0.3,0.4c-0.6,0.4-1.4,0.5-2.1,0.7c-1.3,0.2-2.6,0.3-3.9,0.3
			c-0.6,0-1.3,0.2-1.9,0c-0.7,0.1-1.4-0.1-2,0.3c-0.1,0.1,0,0.2,0,0.3c0.8,0.5,1.9,0.1,2.9,0.3h7c0.5,0,1,0,1.4-0.3
			c0.9-0.5,1.4-1.5,1.9-2.4c0.2-0.3,0.3-0.7,0.4-1.1c0.2-0.6,0.7-1,1.3-1.1c0.1,0.9-0.1,1.9-0.3,2.7c-0.1,0.6-0.5,1.1-0.2,1.7
			c0.1,0.3,0.4,0.3,0.6,0.3c2.2,0,4.3-0.1,6.6,0c0.4,0.1,0.8,0.2,1.2,0.2c0-0.1,0.2-0.1,0.1-0.2c-0.1-0.2-0.2-0.4-0.4-0.5
			c0-0.1-0.2-0.1-0.2-0.1c-1.1-0.6-2.5-0.3-3.9-0.3c-0.7,0.1-1.4,0.2-2-0.2c-0.3-0.3-0.1-1.3-0.1-1.3c0-0.4,1-3.2,1.1-3.5
			c0-0.3,0.1-0.5,0.1-0.8c0.1-0.4,0.1-0.8,0.1-1.2c0.1-0.6,0.4-1.1,0.6-1.7c0.1-0.3,0.2-0.6,0.3-0.8c0.1-0.3,0.1-0.7,0.4-0.9
			c0.6,0.4,1.2,0.4,1.4,1l0.2,1.5c0,0.1,0.1,0.3,0.2,0.2c0.5-0.3,0.3-1,0.3-1.5c0.1-0.6-0.3-0.8-0.4-1.3c-0.1-0.1-0.3-0.5-0.3-0.5
			c-0.1-0.4-0.9-0.7-0.7-1.2c0.1-0.4,0.2-0.8,0.6-1c0.1,0,0.1,0.1,0.1,0.1l0.2-0.1l0-1.5c0.6,0,1.4,0.1,2,0.1
			c0.2,0.1,0.3,0.2,0.5,0.2l0.1-0.2l1.4-0.3C72.6,26.4,72.2,25.7,71.6,25.7L71.6,25.7z"/>
		<path d="M57.6,31.3c0,0.2-0.1,0.3-0.3,0.4c-0.1-0.1-0.2-0.1-0.3-0.2c-0.1-0.2,0.1-0.3,0.2-0.4C57.4,31.1,57.6,31.2,57.6,31.3
			L57.6,31.3z"/>
		<path d="M56.5,31.3c0.1,0.1,0.1,0.3,0.1,0.4c-0.1,0.1-0.3,0.2-0.4,0.1c-0.1-0.1-0.2-0.2-0.1-0.4C56.1,31.3,56.3,31.2,56.5,31.3
			L56.5,31.3z"/>
		<path d="M94.9,31.8c0.1,0.2-0.1,0.3-0.2,0.4c-0.2-0.1-0.4-0.1-0.4-0.3c0-0.1,0.1-0.2,0.3-0.3C94.7,31.6,94.9,31.7,94.9,31.8
			L94.9,31.8z"/>
		<path d="M95.9,31.8c0.1,0.1,0.2,0.2,0,0.3c-0.1,0.1-0.1,0.1-0.2,0.1c-0.2,0-0.4,0-0.4-0.2c0-0.2,0.1-0.3,0.3-0.4
			C95.7,31.6,95.8,31.7,95.9,31.8L95.9,31.8z"/>
		<path d="M52,32c-0.1,0.2-0.2,0.3-0.5,0.2c-0.1-0.1-0.1-0.1-0.1-0.2c0-0.1,0.1-0.3,0.2-0.3C51.8,31.7,52,31.8,52,32L52,32z"/>
		<path d="M58,32.3c0,0.1-0.2,0.3-0.3,0.3c-0.2,0-0.3-0.1-0.4-0.3c0-0.1,0.1-0.3,0.2-0.4C57.7,32,58,32.1,58,32.3L58,32.3z"/>
		<path d="M57,32.2c0.1,0.1,0.1,0.2,0.1,0.3c-0.1,0.1-0.3,0.3-0.4,0.1c-0.1-0.1-0.2-0.2-0.2-0.3c0.1-0.1,0.2-0.2,0.3-0.2
			C56.8,32,56.9,32.1,57,32.2L57,32.2z"/>
		<path d="M98.6,32.4c0,0.1-0.1,0.3-0.2,0.3c-0.1,0.1-0.3,0-0.4-0.1c-0.1,0-0.1-0.2-0.1-0.3c0.1-0.1,0.2-0.2,0.3-0.2
			C98.4,32.2,98.5,32.3,98.6,32.4L98.6,32.4z"/>
		<path d="M99.8,32.6c-0.1,0.2-0.2,0.3-0.3,0.3c-0.1,0-0.3-0.1-0.3-0.2c0-0.1,0.1-0.3,0.2-0.3C99.5,32.3,99.7,32.4,99.8,32.6
			L99.8,32.6z"/>
		<path d="M54,32.8c0,0.2,0,0.4-0.2,0.4c-0.1,0.1-0.2,0-0.3-0.1c-0.1-0.1-0.2-0.2-0.1-0.4c0-0.2,0.2-0.1,0.3-0.2
			C53.9,32.6,54,32.7,54,32.8L54,32.8z"/>
		<path d="M54.9,33c0.1,0.1-0.1,0.2-0.1,0.3c-0.1,0.1-0.2,0.1-0.3,0c-0.1-0.1-0.3-0.3-0.1-0.4C54.5,32.6,54.8,32.8,54.9,33L54.9,33z
			"/>
		<path d="M97.6,32.9c0,0.2-0.1,0.3-0.2,0.4c-0.2,0-0.3-0.1-0.4-0.2c0-0.1,0.1-0.3,0.2-0.3C97.3,32.7,97.5,32.7,97.6,32.9L97.6,32.9
			z"/>
		<path d="M99,33.2c0,0.2,0,0.3-0.2,0.4c-0.1,0-0.3,0-0.4-0.1c-0.1-0.1-0.1-0.3-0.1-0.4c0.1-0.1,0.2-0.3,0.4-0.2
			C98.9,33,98.9,33.1,99,33.2L99,33.2z"/>
		<path d="M53.4,33.6c0.1,0.1-0.1,0.2-0.1,0.3c-0.1,0.1-0.2,0-0.4,0c-0.1-0.1-0.1-0.3-0.1-0.3C53,33.1,53.3,33.3,53.4,33.6
			L53.4,33.6z"/>
		<path d="M97.9,33.9c0.1,0,0,0.1,0,0.2c-0.4,0.2-1.1,0.3-1.4-0.1c-0.2-0.2-0.5-0.3-0.7-0.4c0.1-0.2,0.4-0.2,0.6-0.3
			C96.9,33.4,97.3,33.9,97.9,33.9L97.9,33.9z"/>
		<path d="M54.2,33.7c0,0.1-0.1,0.2-0.1,0.3c-0.1,0.1-0.2,0.1-0.3,0c-0.2-0.1-0.2-0.3-0.1-0.4C53.9,33.4,54.1,33.5,54.2,33.7
			L54.2,33.7z"/>
		<path d="M55.8,33.8c0.1,0.2,0,0.3-0.2,0.4c-0.1,0.1-0.2,0-0.3-0.1c-0.1-0.1-0.2-0.3-0.1-0.4C55.3,33.5,55.7,33.6,55.8,33.8
			L55.8,33.8z"/>
		<path d="M76.4,34.6c0,0.4-0.6-0.1-0.5,0.4c0.1,0.3,0.2,0.8,0.4,1c0.2,0.2,0.1,0.6,0.1,0.9c-0.2,0.3-0.4,0.4-0.7,0.6
			c-0.5-0.1-1.3,0.3-1.5-0.4c-0.1-0.3-0.3-0.5-0.3-0.9c0.1,0,0.1,0,0.2-0.1c0-0.1-0.1-0.2-0.1-0.3c0.6-0.1-0.2-0.6,0.3-0.6
			c0.4,0.4,1.1,0.3,1.4,0.8c0.1,0.1,0.2,0.2,0.3,0.2c-0.1-0.4-0.3-0.9-0.3-1.3c-0.1-0.2,0-0.5,0.2-0.6C76,34.1,76.3,34.4,76.4,34.6
			L76.4,34.6z"/>
		<path d="M57.4,34.5c0.1,0.2-0.1,0.3-0.2,0.4c-0.2,0.1-0.2-0.1-0.3-0.2c-0.1-0.2,0.1-0.3,0.2-0.4C57.1,34.3,57.3,34.4,57.4,34.5
			L57.4,34.5z"/>
		<path d="M68.4,34.7c0.2,0.7,0.1,1.4-0.2,2c0,0.1,0,0.4-0.2,0.4c-0.5-0.7-0.1-1.6,0.1-2.3C68.1,34.6,68.3,34.5,68.4,34.7L68.4,34.7
			z"/>
		<path d="M83.7,35c0.2,0.5,0.3,1.2,0,1.7l-0.1,0.1c-0.2-0.4-0.4-0.8-0.4-1.3c0.1-0.3,0.2-0.6,0.2-1C83.6,34.5,83.6,34.9,83.7,35
			L83.7,35z"/>
		<path d="M58.8,35.2c-0.1,0.2-0.4,0.3-0.6,0.4c-0.4,0.3-1.1,0.4-1.6,0.3c0.5-0.6,1.2-1,2-0.8C58.6,35.2,58.7,35.1,58.8,35.2
			L58.8,35.2z"/>
		<path d="M51.4,35.9c0.7,0.5,0.8,1.1,1.2,1.8c0.1,0.1,0.2,0.1,0.2,0.2c-0.1,0.1-0.3-0.1-0.5-0.1c-0.7-0.3-1.1-1.1-1.1-1.9
			C51.2,35.9,51.3,35.9,51.4,35.9L51.4,35.9z"/>
		<path d="M83,36.4c0,0.2,0,0.4-0.2,0.4c-0.2,0.1-0.4-0.1-0.4-0.2c-0.1-0.1,0.1-0.2,0.1-0.3C82.6,36.2,82.9,36.2,83,36.4L83,36.4z"
			/>
		<path d="M90.5,37.4c0-0.3,0.1-0.7,0.1-1c0.1-0.1,0.1-0.2,0.1-0.4c0.4-0.6,1.3-0.4,2-0.3c0.3,0.1,0.6,0.1,0.9,0.2
			c0.1-0.1,0.3-0.1,0.4-0.1c0.6-0.3,0.2-1,0.2-1.5L94,33.7c-0.1-0.1-0.1-0.2-0.1-0.4c-0.1-0.1-0.2-0.4-0.3-0.5
			c-0.3-0.8-0.9-1.2-1.4-1.9c-0.9-1.2-2.3-1.9-3.8-2.3c-1.4-0.5-2.8,0.1-4.1,0.6c-0.4-0.1-0.6-0.4-0.7-0.8c-0.1-0.7,0.1-1.3,0.3-1.9
			c0.1-0.4,0.4-0.8,0.5-1.2c0.3-1,0.7-2,0.7-3.1c0-0.7-0.5-1.1-1-1.4c-0.3-0.1-0.7-0.1-1,0.2c-0.2,0.5-0.7,0.8-1.2,1
			c0,0.3,0.3,0.1,0.5,0.2c0.4,0.1,0.8-0.1,1.2,0.2c0,0.7-0.4,1.3-0.8,1.9c-0.6,0.9-1.2,1.8-1.6,2.8l-0.1-0.1l0.1,4.4
			c0.6,0.9,1.3,2,2.3,2.4c0.6,0.5,1.3,1,2.1,0.6c0.4-0.1,0.4,0.4,0.6,0.7c0.2,0.7-0.3,1.1-0.3,1.7l-0.5,1c-0.5,1-1,2.2-1.8,3
			c-0.3,0-0.4,0.3-0.7,0.3c-0.1,0.2-0.4,0.1-0.6,0.1c-0.6,0.2-1.3,0.1-1.7,0.6c0,0.1,0.1,0.1,0.1,0.1c1.1,0,2.3,0.1,3.5,0
			c0.1-0.1,0.3-0.2,0.3-0.3c-0.2-0.3,0.1-0.6,0.2-0.8c0.1-0.4,0.4-0.7,0.5-1.1c0.4-0.7,0.8-1.5,1.2-2.2l0.6-0.9
			c0.1-0.3,0.3-0.7,0.6-1c0.1-0.1,0.2-0.3,0.3-0.5c0-0.2-0.1-0.3-0.2-0.4c0.1-0.1,0.3-0.1,0.5-0.1c0.4,0.3,0.9,0.7,1,1.2l0.2,0.5
			l0.1,0.2l0,0.6l0.1,0.6c0.1,0.9-0.1,1.7-0.2,2.6c-0.3,1-1.5,0.9-2.4,1.2c-0.2,0.1-0.6,0.1-0.6,0.4c1,0.2,2.2,0.1,3.4,0.1
			c0.2-0.1,0.2-0.2,0.3-0.4c0-0.2,0.3-0.4,0.2-0.7c-0.2-0.3,0-0.6-0.1-1c0-0.1,0-0.2,0-0.3c0.1-0.5,0.1-1.2,0.2-1.7L90.5,37.4
			L90.5,37.4z"/>
		<path d="M99.3,36.7c-0.6,0.8-1.2,1.7-2.2,2c-0.1,0-0.1,0-0.2-0.1c0.6-0.6,0.9-1.7,1.9-1.9C98.9,36.7,99.1,36.6,99.3,36.7
			L99.3,36.7z"/>
		<path d="M50.5,37.5c-0.1,0.1,0,0.2-0.2,0.3c-0.1,0.1-0.3,0-0.4-0.2c-0.1-0.2,0.1-0.4,0.2-0.4C50.4,37.3,50.5,37.4,50.5,37.5
			L50.5,37.5z"/>
		<path d="M55.7,37.8c0.1,0.2-0.1,0.2-0.2,0.2c-0.8,0.3-1.5,0-2.1-0.5c0-0.1,0-0.1,0.1-0.2C54.2,37.5,55.1,37.3,55.7,37.8L55.7,37.8
			z"/>
		<path d="M51.5,37.6c0,0.1,0.1,0.2,0,0.3C51.5,38,51.3,38,51.1,38c-0.1-0.1-0.2-0.1-0.2-0.2c0-0.2,0.2-0.3,0.3-0.3
			C51.3,37.4,51.4,37.5,51.5,37.6L51.5,37.6z"/>
		<path d="M68.3,37.7c0,0.2-0.1,0.3-0.2,0.3c-0.2,0-0.3,0-0.4-0.1c-0.1-0.1,0-0.3,0.1-0.3C67.9,37.5,68.2,37.5,68.3,37.7L68.3,37.7z
			"/>
		<path d="M100,37.7c0.1,0.2-0.1,0.3-0.2,0.4c-0.1,0.1-0.2,0-0.3-0.1c0-0.1-0.1-0.2-0.1-0.3c0.1-0.2,0.2-0.2,0.4-0.2
			C99.8,37.6,99.9,37.6,100,37.7L100,37.7z"/>
		<path d="M101.1,37.7c0.1,0.2,0,0.3-0.1,0.4c-0.1,0.1-0.2,0.2-0.3,0.1c-0.1-0.1-0.2-0.2-0.3-0.3c0-0.1,0.2-0.3,0.3-0.3
			C100.9,37.5,101,37.7,101.1,37.7L101.1,37.7z"/>
		<path d="M49.8,38.2c0,0.1-0.1,0.2-0.1,0.3c-0.1,0-0.2,0.1-0.3,0.1c-0.1-0.1-0.2-0.2-0.3-0.3c0-0.2,0.1-0.3,0.3-0.4
			C49.6,37.9,49.7,38,49.8,38.2L49.8,38.2z"/>
		<path d="M87.4,38.2c0,0.1,0,0.2,0,0.2c-0.1,0.1-0.2,0.3-0.4,0.2c-0.1-0.1-0.2-0.2-0.2-0.4C86.9,38,87.2,37.9,87.4,38.2L87.4,38.2z
			"/>
		<path d="M52.7,38.4c0,0.1-0.1,0.3-0.2,0.3c-0.2,0-0.2-0.1-0.3-0.2c0-0.2,0-0.3,0.1-0.4C52.5,38,52.7,38.2,52.7,38.4L52.7,38.4z"/>
		<path d="M51,38.5c0.1,0.2-0.1,0.3-0.2,0.4c-0.2,0.1-0.4-0.1-0.5-0.3c0-0.2,0.1-0.4,0.3-0.4C50.8,38.2,50.9,38.4,51,38.5L51,38.5z"
			/>
		<path d="M88.6,38.4c0,0.2,0,0.4-0.2,0.4c-0.2,0.1-0.4-0.1-0.5-0.3c0.1-0.1,0.1-0.3,0.3-0.4C88.4,38.2,88.5,38.3,88.6,38.4
			L88.6,38.4z"/>
		<path d="M51.8,38.5c0.1,0.1-0.1,0.2-0.1,0.3c-0.1,0-0.1,0.1-0.2,0.1c-0.1-0.1-0.2-0.1-0.2-0.3c0-0.2,0.1-0.3,0.2-0.3
			C51.6,38.2,51.7,38.4,51.8,38.5L51.8,38.5z"/>
		<path d="M99,38.7c-0.1,0.1-0.2,0.2-0.3,0.3c-0.1,0-0.2-0.1-0.3-0.1c-0.1-0.1-0.1-0.2,0-0.3C98.5,38.2,99,38.3,99,38.7L99,38.7z"/>
		<path d="M100.3,38.7c-0.1,0.2-0.2,0.3-0.4,0.3c-0.2-0.1-0.3-0.2-0.2-0.4c0.1-0.1,0.1-0.1,0.2-0.2
			C100.1,38.4,100.3,38.6,100.3,38.7L100.3,38.7z"/>
		<path d="M91.8,38.9c0.1,0.2-0.1,0.3-0.3,0.4c-0.1,0-0.2-0.1-0.3-0.1c0-0.2,0.1-0.4,0.3-0.5C91.7,38.7,91.7,38.7,91.8,38.9
			L91.8,38.9z"/>
		<path d="M86.9,39.1c0.1,0,0.1,0.2,0,0.2c-0.1,0.1-0.2,0.3-0.4,0.1c-0.1-0.1-0.2-0.2-0.2-0.3C86.5,38.9,86.9,38.9,86.9,39.1
			L86.9,39.1z"/>
		<path d="M87.9,39.2c0,0.1,0,0.2-0.1,0.3c-0.1,0.1-0.3,0-0.4-0.1c0-0.1-0.1-0.2,0-0.3c0.1-0.1,0.1-0.1,0.2-0.1
			C87.7,39.1,87.9,39.1,87.9,39.2L87.9,39.2z"/>
		<path d="M57.6,39.2c0.1,0.1,0,0.2,0,0.3c-0.1,0.1-0.3,0.2-0.4,0.1C57,39.6,57,39.3,57,39.2c0.1,0,0.1-0.2,0.2-0.2
			C57.5,39.1,57.5,39.1,57.6,39.2L57.6,39.2z"/>
		<path d="M93.8,39.3c0,0.2-0.1,0.3-0.3,0.3c-0.2,0.1-0.3-0.1-0.4-0.2c0-0.1,0.1-0.2,0.1-0.3C93.5,39,93.6,39.1,93.8,39.3L93.8,39.3
			z"/>
		<path d="M92.8,39.3c0.1,0.2-0.1,0.3-0.2,0.4c-0.1,0.1-0.3,0-0.4-0.1c-0.1-0.1-0.1-0.2-0.1-0.3c0.1-0.1,0.2-0.2,0.3-0.2
			C92.6,39.1,92.7,39.2,92.8,39.3L92.8,39.3z"/>
		<path d="M100.8,39.5c0,0.3-0.3,0.1-0.4,0.2c-0.8,0.4-1.7,0.1-2.4-0.2c0.1-0.2,0.3-0.1,0.5-0.2C99.2,38.8,100,39.4,100.8,39.5
			L100.8,39.5L100.8,39.5z"/>
		<path d="M52,39.3l-0.1,0.1c-0.7,0.4-1.5,0.7-2.3,0.4l-0.1-0.1C50.2,39.2,51.1,39.1,52,39.3L52,39.3L52,39.3z"/>
		<path d="M95.6,39.4c0,0.1-0.1,0.3-0.2,0.3c-0.2,0.1-0.4,0-0.5-0.2c-0.1-0.1,0.1-0.3,0.2-0.3C95.3,39.2,95.5,39.2,95.6,39.4
			L95.6,39.4z"/>
		<path d="M55.2,39.5c-0.1,0.1,0,0.3-0.2,0.4c-0.2,0.1-0.4-0.1-0.4-0.2c-0.1-0.2,0.1-0.3,0.2-0.3C54.9,39.2,55.1,39.3,55.2,39.5
			L55.2,39.5z"/>
		<path d="M53.9,39.6c0.1,0.1-0.1,0.2-0.1,0.3c-0.1,0.1-0.2,0.1-0.4,0.1c-0.1-0.1-0.2-0.2-0.2-0.4c0.1-0.1,0.2-0.1,0.3-0.2
			C53.7,39.3,53.9,39.4,53.9,39.6L53.9,39.6z"/>
		<path d="M96.8,40c0,0.2-0.1,0.3-0.3,0.3c-0.1,0-0.3-0.1-0.3-0.2c-0.1-0.1,0-0.3,0.1-0.3c0-0.1,0.2-0.1,0.2-0.1
			C96.7,39.7,96.8,39.8,96.8,40L96.8,40z"/>
		<path d="M52.6,39.8c0.1,0.1-0.1,0.2-0.1,0.3c-0.1,0.3-0.2,0.5-0.4,0.8c-0.3,0.4-0.8,0.4-1.3,0.5l-0.1-0.1
			C51.3,40.6,51.8,40.1,52.6,39.8L52.6,39.8L52.6,39.8z"/>
		<path d="M95.9,40.2c0,0.2-0.1,0.3-0.3,0.3c-0.2,0-0.3-0.1-0.4-0.2c-0.1-0.2,0.1-0.3,0.2-0.4C95.7,39.9,95.9,40,95.9,40.2
			L95.9,40.2z"/>
		<path d="M54.6,40.2C54.6,40.2,54.7,40.3,54.6,40.2c0,0.3-0.1,0.3-0.2,0.4c-0.2,0-0.3-0.1-0.4-0.2c-0.1-0.2,0-0.4,0.2-0.4
			C54.4,40,54.6,40,54.6,40.2L54.6,40.2z"/>
		<path d="M99.2,40.7c0.2,0,0.2-0.2,0.4-0.3c0.2,0,0.3,0.1,0.4,0.2c0.1,0.2-0.1,0.3-0.2,0.4c-0.1,0.1-0.4-0.1-0.4,0.1
			c0.1,0.1,0.2,0.2,0.3,0.4c0,0.1-0.2,0.1-0.2,0c-0.5-0.2-1.1-0.6-1.3-1.1c-0.1-0.2-0.4-0.3-0.2-0.4C98.5,40,98.9,40.4,99.2,40.7
			L99.2,40.7z"/>
		<path d="M100.9,40.2c0.1,0.1,0.1,0.3,0,0.3c-0.1,0.2-0.4,0.1-0.5,0.1c-0.1-0.1-0.2-0.2-0.1-0.3c0.1-0.1,0.1-0.2,0.3-0.2
			C100.7,40,100.8,40.1,100.9,40.2L100.9,40.2z"/>
		<path d="M94.5,41.1c0.2,0.2,0.3,0.5,0.4,0.7c0,0.1-0.1,0-0.2,0c-0.6-0.3-1.4-0.7-1.6-1.4c-0.1-0.1-0.2-0.2-0.2-0.3
			c0.5-0.1,0.9,0.3,1.2,0.5C94.2,40.9,94.4,40.9,94.5,41.1L94.5,41.1z"/>
		<path d="M53.7,40.5c0.1,0.2-0.1,0.3-0.2,0.4c-0.2,0-0.3,0-0.4-0.1c-0.1-0.2,0.1-0.4,0.3-0.4C53.5,40.2,53.6,40.4,53.7,40.5
			L53.7,40.5z"/>
		<path d="M96.7,40.9c0,0.1-0.1,0.2-0.2,0.3c-0.1,0-0.3,0.1-0.4-0.1c0-0.1-0.1-0.2,0-0.3C96.3,40.5,96.6,40.7,96.7,40.9L96.7,40.9z"
			/>
		<path d="M101.1,41.1c0.1,0.2-0.1,0.4-0.2,0.4c-0.2,0.1-0.3-0.1-0.4-0.2c-0.1-0.1,0-0.2,0-0.3c0.1-0.1,0.3-0.2,0.5-0.1
			C101,41,101.1,41,101.1,41.1L101.1,41.1z"/>
		<path d="M88.8,43.6c0,0.2-0.4,0.2-0.6,0.3c-0.6,0.3-1.2,0.3-1.9,0.3v-0.1C87,43.5,87.9,43.3,88.8,43.6L88.8,43.6z"/>
		<path d="M62.7,44.4c0,0.2-0.1,0.3-0.3,0.3c-0.1,0-0.2-0.1-0.3-0.2c-0.1-0.2,0.1-0.3,0.2-0.4C62.6,44.1,62.7,44.2,62.7,44.4
			L62.7,44.4z"/>
		<path d="M88.5,44.6c0,0.2-0.1,0.3-0.3,0.4c-0.2,0-0.3-0.1-0.4-0.1c-0.1-0.1,0-0.2-0.1-0.3C87.9,44.2,88.3,44.2,88.5,44.6
			L88.5,44.6z"/>
		<path d="M92,44.6c-0.4,0.3-0.9,0.6-1.5,0.6l-1,0l-0.1-0.1c0.6-0.7,1.7-0.7,2.6-0.6V44.6L92,44.6z"/>
		<path d="M57.8,45.1c0,0.2-0.1,0.3-0.2,0.3c-0.2,0-0.3,0-0.4-0.2c-0.1-0.2,0-0.3,0.1-0.4C57.6,44.7,57.8,44.9,57.8,45.1L57.8,45.1z
			"/>
		<path d="M58.7,45.3c0.1,0.1,0,0.1-0.1,0.2c-0.1,0.1-0.2,0.1-0.3,0c-0.1-0.1-0.2-0.2-0.1-0.3c0.1-0.1,0.2-0.1,0.2-0.2
			C58.6,45.1,58.7,45.1,58.7,45.3L58.7,45.3z"/>
		<path d="M51.9,47.1c-0.2,0.2-0.5-0.1-0.7-0.2c-0.6-0.4-0.6-1.1-1.2-1.5c0.1-0.2,0.2,0,0.4,0c0.1,0.1,0.2,0.1,0.4,0.2
			C51.3,46,51.5,46.5,51.9,47.1L51.9,47.1z"/>
		<path d="M103.9,40.1c-0.3-0.5-0.8-0.7-1.3-0.7c-0.5,0-0.8,0.3-1,0.7c-0.1,0.4,0,0.8,0.3,1c0.1,0.1,0.3,0,0.4-0.1
			c0.1-0.2-0.2-0.2-0.2-0.4c-0.1-0.3,0-0.5,0.2-0.6c0.2-0.2,0.5-0.1,0.7-0.1c0.2,0.1,0.4,0.3,0.5,0.5c0.1,0.3,0.1,0.6,0,1
			c-0.2,0.4-0.6,0.8-1.1,0.9c-1.5,0.2-17.7,0.1-17.7,0.1c-1.9,0.2-4.1-0.4-5.7,0.6c-0.8,0.4-1.1,1.2-1.3,1.9c-0.5,0.4-1,0.9-1.4,1.4
			l-0.1-0.1c0.1-0.4,0.3-0.8,0.4-1.2c0.3-0.4,0.3-0.8,0.5-1.2c0.7-1.1,1.3-2.2,2.4-3c0.4-0.6,1.2-0.5,1.9-0.5
			c0.7,0.3,1.6,0.4,2.5,0.4c0,0,0.1-0.1,0.1-0.1c-0.2-0.2-0.7-0.3-0.9-0.6c-0.7-0.3-1.4,0.1-2.1,0.1c0,0-0.1-0.1-0.1-0.1
			c0.7-0.5,1.4-0.9,2.2-1.2c0.6-0.3,1.3-0.5,1.9-0.8c0.3,0,0.5-0.2,0.8-0.1l0.9-0.3c0,0,0.1,0.1,0.1,0.1c0.8-0.3,1.8,0,2.7,0
			l0.1,0.1l0.9,0.2c0.3,0,0.5,0.4,0.8,0.4c0.2-0.3-0.2-0.4-0.3-0.5c0.4-0.1,0.8,0,1.2,0.2L92,38.3c-0.1,0.2,0.1,0.3,0.2,0.4
			c0.1,0,0.2-0.1,0.3-0.1c0.2-0.2,0-0.3,0.1-0.5c1.3,0.2,2.6,0.6,3.8,1.1c0.3,0.1,0.7,0.4,1,0.3c-0.4-0.3-0.9-0.5-1.4-0.7
			c-0.3-0.2-0.7-0.2-1-0.4c0.1-0.1,0.2-0.1,0.2-0.1c0.6-0.1,1.1-0.5,1.6-1c0-0.1,0.2-0.1,0.2-0.2c-0.2-0.2-0.4,0.1-0.6,0
			c-0.8,0.1-1.1,1-1.8,1.2c-0.9-0.2-1.8-0.4-2.7-0.7c-0.4-0.1-0.9-0.1-1.3-0.3l-1-0.1h-1.8c0,0-0.1-0.1-0.1-0.1
			c0.6-0.2,1.2-0.5,1.8-0.7l4.8-2.2c0.5-0.4,0.9-1,1.4-1.5c0-0.1-0.1-0.3-0.2-0.3c-0.1-0.1-0.3,0-0.4,0.1c-0.2,0.2,0,0.4,0,0.6
			c-0.2,0.3-0.6,0.5-0.8,0.7c-0.1,0-4.9,2.2-4.9,2.2c-0.7,0.3-1.4,0.6-2.2,0.8l-1,0.2c-0.1,0.2-0.2,0.3-0.4,0.4
			c-0.3,0.1-0.5,0.2-0.8,0.2c-2.3,0.9-4.7,1.9-6.6,3.7c0.1-0.2,0.2-0.5,0.2-0.8c0-0.3,0-0.6-0.2-0.8c0-0.1-0.2-0.4-0.1-0.5l-0.3,0.2
			c-0.2,0.4-0.3,1.1-0.1,1.5c0.1,0.3,0.3,0.7,0.1,1c-0.9,1-1.3,2.3-1.9,3.5c-0.2,0-0.3-0.2-0.4-0.4c0.6-0.8,1.1-1.6,1.3-2.6
			c0.1-0.1,0-0.3,0.2-0.4c0-0.3,0.2-0.6,0-0.8c0.1-0.4-0.5-0.8-0.1-1l-0.3,0.2c-0.8,1,0.4,2.5-0.5,3.5v0.1c-0.2,0.3-0.4,0.6-0.7,0.9
			c-0.4-0.2-0.6-0.7-0.8-1C74,43.3,74,42.5,74.2,42c0.2-0.5-0.1-1-0.2-1.4l-0.2-0.1c-0.4,0.6-0.6,1.4-0.2,2.1c0.2,0.3,0.2,0.8,0.5,1
			c0.2,0.5,0.5,0.9,0.8,1.3c0.1,0.2-0.1,0.2-0.2,0.3c-0.2-0.1-0.2-0.4-0.3-0.5c-0.6-1.3-1.4-2.3-2.3-3.3c0-0.2-0.2-0.3-0.1-0.5
			c0.3-0.3,0.4-1,0.2-1.4c0-0.1-0.1-0.2-0.1-0.3l-0.3-0.2c0,0.6-0.4,1.2-0.2,1.9v0c-1.8-1.4-3.9-2.6-5.9-3.6l-0.2,0.5
			c0.5,0.1,1.9,1,1.9,1c0.6,0.2,1.2,0.6,1.8,1c2.4,1.3,4,3.6,5.1,6.1c0,0.2,0.2,0.4,0.1,0.6c-0.4-0.6-0.9-0.9-1.4-1.4
			c-0.1-0.8-0.6-1.7-1.4-2c-0.3-0.4-0.8-0.4-1.3-0.6l-6.5,0c-5.3-0.1-10.1,0.2-15.4,0.1c-0.7-0.1-1.6-0.3-1.8-1.1
			c-0.1-0.3-0.1-0.7,0-1c0.2-0.3,0.6-0.4,0.9-0.5c0.3,0,0.5,0.3,0.6,0.5c0,0.2-0.2,0.4-0.3,0.6c0,0.1,0.1,0.2,0.2,0.2
			c0.2-0.1,0.4-0.3,0.5-0.6c0-0.1,0.1-0.3-0.1-0.4c-0.1-0.4-0.5-0.6-0.8-0.7c-0.4,0-0.9,0.1-1.2,0.4c-0.4,0.4-0.4,1-0.3,1.5
			c0.3,0.8,1.1,1.3,1.9,1.4L65.5,43c1.7,0.1,3.6-0.2,5.3,0.1c0.6,0.2,1.3,0.7,1.4,1.4c0,0-0.1,0-0.1,0c-1.4-0.9-3.3-1.3-5.1-1
			c-0.7,0-1.4,0.2-2,0.4c-0.3,0.1-0.7-0.1-0.9-0.3c-0.6-0.6-1.8-0.5-2.6-0.3c0,0.1,0,0.1,0,0.1c0.9-0.1,1.4,0.7,2.2,0.8
			c0.2,0,0.3-0.2,0.5,0c-0.8,0.4-1.6,0.9-2.5,1.1c-0.3-0.1-0.4-0.3-0.6-0.4c-0.3-0.4-1-0.2-1.4-0.3c-0.2,0-0.3-0.1-0.4,0
			c0.1,0.3,0.5,0.4,0.8,0.6c0.4,0.2,1,0,1.4,0.3c-0.1,0.1-0.2,0.2-0.4,0.3c-0.8,0.3-1.5,1.1-2.5,1c-1,0.1-2-0.2-2.6-0.9
			c-0.3-0.7-1-1.1-1.8-1c-0.1,0-0.1,0-0.1,0.1c0.4,0.2,0.7,0.7,1.1,1c0.3,0.3,0.7,0,1,0.3c0.3,0.2,0.8,0.4,1.2,0.5
			c0.3,0.1,0.6,0.2,0.9,0.3l-0.1,0.1c-1.6,0.5-3.5,0.6-5.3,0.5c-0.5,0-1.1-0.2-1.6-0.2c0.1,0.1,0.3,0.2,0.4,0.3
			c-0.1,0.1-0.3,0.1-0.5,0.1c-0.2,0.1-0.5,0.1-0.7,0.2c-0.3,0-0.5,0.1-0.8,0.2c-0.3,0.3-0.7,0.7-1,0.8c0,0.1,0,0.2,0.1,0.2
			c0.3-0.1,0.8,0,1.1-0.2c0.6-0.1,0.9-0.7,1.4-1c0.5-0.4,1.2-0.3,1.8-0.2c0.4,0.1,0,0.2,0.1,0.5c0.1,0.1,0.3,0.3,0.5,0.2
			c0,0,0.1-0.1,0.1-0.1c0.1-0.1,0.1-0.3,0-0.5c0.2-0.2,0.6,0,0.9-0.1c0.7,0,1.4-0.2,2-0.2c0.1,0,0.2-0.1,0.3,0
			c-0.1,0.1-0.2,0.2-0.2,0.4c0,0.2,0.2,0.2,0.4,0.3c0.2-0.1,0.3-0.2,0.3-0.4c0-0.1-0.2-0.1-0.3-0.2c0.4-0.2,0.8-0.2,1.2-0.4
			c0.3-0.1,0.5-0.1,0.7-0.3c0.2,0,0.4-0.2,0.6-0.1c-0.1,0.3-0.2,0.6-0.4,0.9c-0.3,1-0.5,2.2,0,3.1c0.1,0,0.1,0,0.1,0
			c-0.4-1-0.2-2,0.2-2.9c0.2-1.5,1.8-2,2.9-2.6l0.1,0.1c-0.3,0.8-0.7,1.5-0.7,2.5c0,0.2-0.1,0.3,0,0.4c0.3-0.2,0.5-0.5,0.7-0.8
			c0.1-0.8-0.3-1.8,0.5-2.4c1.5-0.6,2.8-1.3,4.5-1.3c0.1,0.1,0.2,0,0.2,0.1c-0.4,0.4-0.9,0.8-1,1.3c-0.6,0.8-0.6,2.1-0.3,3.1
			c0.2,0.6-0.3,0.9-0.6,1.3c-0.1,0.2-0.1,0.4-0.2,0.6l0.4,0c0.3-0.3,0.6-0.7,0.6-1.2c0,0.2,0.2,0.3,0.3,0.4c0.1-0.2-0.1-0.3-0.1-0.5
			c0.3-0.2,0.4,0.2,0.6,0.3c0.4,0.1,0.7,0.3,1.1,0.3l0.1-0.1c-0.4-0.6-1.2-0.7-1.9-0.8c-0.4-0.6-0.4-1.3-0.3-2
			c0.1-0.4,0.1-0.8,0.4-1.1c0.1-0.3,0.3-0.5,0.5-0.7c0.3-0.3,0.7-0.5,1.1-0.6h0.1c0,0,0,0.1,0,0.1c-0.5,0.4-0.5,0.9-0.8,1.4
			c-0.3,0.4-0.4,1.1-0.2,1.6c0.1,0.2,0.1,0.6,0.3,0.8c0.2-0.3,0.2-0.7,0.4-1.1c-0.1-0.6-0.4-1.2-0.1-1.7c0.2-0.4,0.6-0.6,1-0.8
			c1-0.1,1.8,0.4,2.7,0.8c0.2,0.1,0.5,0.2,0.5,0.5c0,0.5-0.3,1-0.7,1.2c-0.5,0.3-1.2,0.3-1.6,0c-0.3-0.3-0.4-0.7-0.3-1.1
			c0.2-0.2,0.5-0.4,0.8-0.3c0.2,0.1,0.3,0.3,0.6,0.2c0.1-0.1,0.1-0.2,0.1-0.3c-0.2-0.1-0.3-0.4-0.5-0.4c-0.3-0.1-0.8,0-1,0.2
			c-0.4,0.3-0.5,0.8-0.4,1.3c0.1,0.6,0.6,1,1.1,1.1c0.8,0.2,1.7-0.1,2.2-0.8c0.2-0.2,0.3-0.5,0.4-0.8c0.9,0.5,1.5,1.4,1.8,2.4
			c0,0.3,0.1,0.6,0,0.9l0.6,0.1c-0.1-0.1,0-0.3,0.1-0.4c0.2-1.2,1-2.2,1.8-2.9c0.3-0.2,0.2,0.2,0.3,0.4c0.3,0.7,0.9,1.2,1.6,1.4
			c0.7,0.1,1.5-0.1,1.9-0.6c0.2-0.4,0.5-1.1,0.1-1.5c-0.2-0.3-0.6-0.5-1-0.5c-0.5,0-0.8,0.3-1,0.7c0,0.1,0,0.3,0.1,0.4
			c0.1,0,0.2,0,0.3-0.1c0-0.3,0.3-0.4,0.5-0.5c0.2-0.1,0.4,0,0.6,0.1C81,45.4,81,45.7,81,46c0,0.3-0.3,0.7-0.6,0.8
			c-0.5,0.3-1.3,0.1-1.7-0.2c-0.2-0.2-0.3-0.5-0.5-0.8c0-0.3-0.1-0.5,0-0.8c0.8-0.5,1.6-0.8,2.6-0.9c0.4,0.1,0.7,0.3,0.9,0.6
			c0.8,0.8-0.2,2,0.4,3c0.2,0,0.2-0.3,0.3-0.5c0.3-0.6-0.1-1.3-0.2-2c-0.2-0.4-0.3-0.7-0.7-1.1c0.1,0,0.1,0,0.2,0
			c0.4,0.3,0.8,0.5,1.1,0.9c0.5,0.8,0.8,1.9,0.7,2.9c-0.1,0.5-0.7,0.8-1.2,1c-0.2,0.1-0.4,0.4-0.5,0.6c0.2,0.1,0.5,0,0.7-0.1
			c0.3-0.1,0.5-0.6,0.8-0.8c0,0,0,0.1,0,0.1c0,0.2-0.1,0.5,0.1,0.5c0.1-0.3,0.1-0.6,0.2-0.9c0.2,0.3,0.3,0.6,0.3,0.9
			c0.2,0.3,0.4,0.8,0.9,0.8c0.1-0.2,0-0.3-0.1-0.5c-0.1-0.4-0.4-0.7-0.7-1c-0.6-0.9-0.3-2.2-0.8-3.2c-0.2-0.5-0.6-0.9-1-1.3l0.1-0.1
			c0.9,0,1.6,0.3,2.4,0.4c1,0.5,2.4,0.4,2.9,1.7c0.2,0.7,0.5,1.4,1,1.9l0.1,0c0.1-0.2,0.1-0.5,0-0.7c-0.1-0.9-0.9-1.1-1.3-1.9
			l0.1-0.1c0.4,0.1,0.9,0.2,1.3,0.4c1.4,0.4,2.4,1.8,2.6,3.3c0,1.2-0.2,2.1-0.7,3.1c-0.1,0.1-0.3,0.3-0.1,0.4
			c0.2-0.1,0.2-0.4,0.3-0.5c0.6-1,0.9-2.4,0.6-3.6c0-0.2-0.3-0.4-0.2-0.6c0.1,0.1,0.2,0.1,0.3,0.2c0.1-0.1,0.3-0.1,0.3-0.2
			c0-0.1,0.1-0.2,0-0.3c-0.1-0.2-0.3-0.2-0.5-0.1c-0.1,0.1-0.2,0.3-0.2,0.4c-0.2-0.3-0.4-0.7-0.6-1l0-0.1c0.8,0.3,1.5,0.7,2.4,0.9
			c0.2,0.1,0.4,0.2,0.6,0.2c0.7,0.3,1.5,0.4,2.2,0.6c0.5-0.1,1,0.2,1.5,0.1v0l0,0c-0.2-0.3-0.6,0-0.9-0.2c-1.2-0.1-2.4-0.5-3.5-0.9
			c0-0.1,0.1,0,0.1,0c0.2-0.1,0.3-0.3,0.3-0.5c-0.1-0.1-0.2-0.2-0.4-0.2c-0.1,0.1-0.2,0.2-0.3,0.3c0,0.1,0.1,0.3,0.3,0.3
			c0,0-0.1,0-0.2,0c-0.6-0.3-1.1-0.5-1.6-0.7c-0.2,0-0.4-0.2-0.6-0.2c-0.4-0.2-0.8-0.4-1.2-0.6c-1.1-0.6-2.4-0.9-3.6-1.3
			c-0.3-0.1-0.5-0.1-0.8-0.2c-0.4-0.1-0.9-0.2-1.3-0.4c-1.5-0.4-3.6-0.4-4.9,0.4c-0.2-0.1-0.3,0.3-0.4,0.1c0.4-1,1.5-1.3,2.4-1.3
			c7.2-0.1,13.9-0.1,20.9-0.2c0.8,0,1.6-0.3,2.1-1C104.1,41.3,104.2,40.6,103.9,40.1L103.9,40.1z M75.6,46.7
			c-0.1,0.2-0.2,0.4-0.2,0.6l-0.1,0c0.1-0.3-0.2-0.4-0.1-0.7C75,46.5,75,46.2,74.9,46c-0.2-0.3,0.1-0.4,0.3-0.6
			c0.2,0.1,0.3,0.3,0.5,0.6C75.8,46.2,75.5,46.4,75.6,46.7L75.6,46.7z"/>
		<path d="M94.9,45.6c0,0.1,0.1,0.1,0.1,0.2c-0.6,0.6-1.5,0.7-2.4,0.8c-0.1,0-0.1,0.1-0.2,0.1c-0.1,0-0.1-0.1,0-0.1
			C93,45.7,94,45.4,94.9,45.6L94.9,45.6z"/>
		<path d="M92,45.9c0.1,0.3-0.1,0.4-0.3,0.5c-0.2,0-0.3-0.1-0.4-0.3c-0.1-0.1,0.1-0.2,0.1-0.3C91.6,45.6,92,45.6,92,45.9L92,45.9z"
			/>
		<path d="M58.1,45.9c0,0.1,0,0.3-0.1,0.4c-0.1,0.1-0.2,0.1-0.3,0.1c-0.1,0-0.2-0.2-0.2-0.3c0-0.2,0.1-0.3,0.2-0.3
			C57.8,45.8,58,45.8,58.1,45.9L58.1,45.9z"/>
		<path d="M54.9,47.1v0.1c-0.4,0.1-0.8,0-1.2-0.3c-0.2-0.4-0.5-0.7-0.9-0.9c0-0.1-0.1-0.1,0-0.2C53.7,45.9,54.2,46.6,54.9,47.1
			L54.9,47.1z"/>
		<path d="M97.6,45.9c-0.4,0.6-0.8,1.4-1.5,1.6c-0.1,0-0.2,0.2-0.3,0.1c0.3-0.7,0.9-1.4,1.6-1.7C97.5,45.9,97.6,45.9,97.6,45.9
			L97.6,45.9z"/>
		<path d="M59.1,46.1c0,0.2-0.1,0.2-0.3,0.3c-0.1,0-0.2-0.1-0.3-0.2c-0.1-0.2,0.1-0.3,0.2-0.3C58.9,45.9,59.1,46,59.1,46.1
			L59.1,46.1z"/>
		<path d="M99.9,46.2c-0.2,0.2-0.1,0.6-0.2,0.8c-0.4,0.4-0.7,0.9-1.2,1c-0.1-0.2,0.1-0.4,0.2-0.5c0.2-0.5,0.6-1.2,1.2-1.4L99.9,46.2
			L99.9,46.2z"/>
		<path d="M49.4,46.4c0.1,0.1,0.1,0.3,0,0.4c-0.1,0.1-0.3,0.1-0.4,0.1c-0.2-0.1-0.2-0.3-0.1-0.4C48.9,46.3,49.3,46.2,49.4,46.4
			L49.4,46.4z"/>
		<path d="M48.4,46.6c0,0.1,0.1,0.2,0.1,0.3c-0.1,0.1-0.1,0.2-0.2,0.2c-0.2,0-0.3-0.1-0.4-0.2c0-0.2,0-0.3,0.2-0.4
			C48.1,46.4,48.3,46.5,48.4,46.6L48.4,46.6z"/>
		<path d="M50.5,46.7c0,0.1,0.1,0.4-0.1,0.4c-0.2,0.1-0.4-0.1-0.5-0.2c0-0.2,0.1-0.3,0.2-0.4C50.2,46.6,50.3,46.6,50.5,46.7
			L50.5,46.7z"/>
		<path d="M53.4,46.9c0,0.1,0,0.3-0.1,0.3c-0.1,0.1-0.2,0.1-0.3,0c0-0.1-0.2-0.2-0.1-0.3c0.1-0.1,0.1-0.1,0.2-0.2
			C53.2,46.9,53.3,46.8,53.4,46.9L53.4,46.9z"/>
		<path d="M101.6,47.1c-0.1,0.1-0.1,0.3-0.3,0.3c-0.2,0-0.3,0-0.4-0.2c-0.1-0.2,0.1-0.3,0.2-0.4C101.3,46.8,101.6,46.9,101.6,47.1
			L101.6,47.1z"/>
		<path d="M98.3,47.2c0,0.1-0.1,0.3-0.2,0.3c-0.2,0.1-0.5-0.1-0.6-0.3c0-0.2,0.2-0.3,0.3-0.3C98.1,46.9,98.2,47,98.3,47.2L98.3,47.2
			z"/>
		<path d="M100.5,47.1c0,0.1-0.1,0.3-0.2,0.3c-0.1,0.1-0.3,0-0.4-0.1c-0.2-0.1,0-0.3,0.1-0.4C100.2,46.9,100.5,46.9,100.5,47.1
			L100.5,47.1z"/>
		<path d="M48.9,47.4c0,0.2,0,0.4-0.2,0.4c-0.2,0-0.3-0.1-0.4-0.3c0-0.2,0-0.3,0.2-0.4C48.7,47.2,48.8,47.3,48.9,47.4L48.9,47.4z"/>
		<path d="M97.4,47.6c0.1,0.2-0.1,0.4-0.2,0.5c-0.1,0-0.2,0-0.3-0.1c-0.1-0.1-0.2-0.3,0-0.4C97,47.3,97.3,47.4,97.4,47.6L97.4,47.6z
			"/>
		<path d="M58.5,47.8c0.1,0.2-0.1,0.2-0.2,0.3c-0.1,0-0.2,0.1-0.3,0c-0.1-0.1-0.2-0.2-0.1-0.4c0.1-0.1,0.1-0.1,0.2-0.2
			C58.3,47.5,58.4,47.7,58.5,47.8L58.5,47.8z"/>
		<path d="M101.3,48c0,0.1-0.1,0.2-0.1,0.3c-0.1,0.1-0.3,0.1-0.4,0.1c-0.2-0.1-0.2-0.2-0.2-0.4c0.1-0.1,0.1-0.2,0.2-0.2
			C101,47.7,101.2,47.8,101.3,48L101.3,48z"/>
		<path d="M100.2,48c0.1,0.2-0.1,0.3-0.3,0.4c-0.1,0-0.2,0-0.2,0.1c0.5,0.2,0.8,0.6,1.1,1v0.1c-0.6,0-1.3-0.2-1.8-0.7
			c-0.1-0.1-0.3-0.1-0.5-0.2c0.2-0.2,0.7-0.1,1-0.2c0.2-0.3-0.3-0.4,0-0.6c0.1,0,0.2-0.1,0.3-0.1C100,47.8,100.1,47.9,100.2,48
			L100.2,48z"/>
		<path d="M92.9,48c0,0.1-0.1,0.2-0.1,0.3c-0.1,0.1-0.3,0.1-0.4,0.1c-0.1-0.1-0.2-0.2-0.2-0.4C92.3,47.7,92.8,47.8,92.9,48L92.9,48z
			"/>
		<path d="M53,48.7c-0.1,0.2-0.1,0.3-0.3,0.3c-0.1,0-0.3-0.1-0.3-0.2c0-0.1,0.1-0.2,0.1-0.3C52.6,48.3,53,48.4,53,48.7L53,48.7z"/>
		<path d="M54.4,48.4c0,0.3-0.3,0.4-0.4,0.6c-0.3,0.6-0.7,1.1-1.4,1.2c-0.1-0.2,0.2-0.4,0.3-0.5c0.3-0.6,0.9-0.9,1.4-1.3H54.4
			L54.4,48.4z"/>
		<path d="M92.4,48.7c0,0.2-0.2,0.3-0.3,0.4c-0.2,0.1-0.3-0.1-0.4-0.1c-0.1-0.1-0.1-0.3,0-0.4C92,48.3,92.3,48.5,92.4,48.7
			L92.4,48.7z"/>
		<path d="M93.5,48.8c0,0.2-0.1,0.3-0.3,0.4c0-0.1-0.1,0-0.2,0c-0.1-0.1-0.2-0.2-0.2-0.3c0.1-0.1,0.1-0.2,0.2-0.3
			C93.2,48.6,93.5,48.6,93.5,48.8L93.5,48.8z"/>
		<path d="M57.2,48.8c0,0.2-0.1,0.3-0.3,0.4c-0.2,0-0.3-0.1-0.3-0.2c0-0.2,0.1-0.3,0.2-0.4C57,48.5,57,48.7,57.2,48.8L57.2,48.8z"/>
		<path d="M58.4,48.9c-0.1,0.2-0.2,0.3-0.3,0.3c-0.1,0-0.3-0.1-0.3-0.2c0-0.2,0.1-0.3,0.2-0.4C58.2,48.6,58.4,48.7,58.4,48.9
			L58.4,48.9z"/>
		<path d="M97.4,50.1c0.1,0.1,0.2,0.2,0.2,0.3c-0.3,0.1-0.5-0.2-0.8-0.3c-0.4-0.4-0.7-0.9-0.9-1.4c0.2-0.2,0.3,0,0.5,0.1
			C96.8,49.1,97.2,49.6,97.4,50.1L97.4,50.1z"/>
		<path d="M98,48.9c0.1,0.1,0,0.3,0,0.4c-0.1,0.2-0.3,0.1-0.5,0.1c-0.1-0.1-0.2-0.3-0.1-0.4c0.1-0.1,0.2-0.2,0.3-0.2
			C97.8,48.7,97.9,48.8,98,48.9L98,48.9z"/>
		<path d="M60,49.3c0,0.1,0.1,0.4-0.1,0.4c-0.2,0-0.4,0-0.4-0.2c-0.1-0.2,0.1-0.3,0.2-0.4C59.8,49.2,59.9,49.2,60,49.3L60,49.3z"/>
		<path d="M93.5,50.5c0.2,0.4,0.4,0.8,0.5,1.3c-0.1,0.1,0.1,0.3,0,0.3h-0.1c-0.8-0.6-1-1.4-1.3-2.2c-0.1,0-0.1-0.1-0.1-0.2
			c0.2-0.2,0.3,0.2,0.5,0.2L93.5,50.5L93.5,50.5z"/>
		<path d="M62.4,49.9C62.3,49.9,62.4,49.9,62.4,49.9c-0.7,0.5-1.7,0.8-2.5,0.4c0-0.1,0-0.1,0.1-0.2c0.5-0.2,1-0.4,1.6-0.3L62.4,49.9
			L62.4,49.9z"/>
		<path d="M58.3,50c-0.6,0.4-1.2,1.1-1.9,1.3c-0.1,0.1-0.2,0.3-0.4,0.1c0.3-1,1.4-1.5,2.3-1.6V50L58.3,50z"/>
		<path d="M92.4,50.8c0.1,0.1,0,0.3-0.1,0.4c-0.1,0.1-0.3,0.1-0.3,0c-0.2-0.1-0.2-0.2-0.2-0.4c0.1-0.1,0.2-0.1,0.3-0.2
			C92.2,50.6,92.3,50.6,92.4,50.8L92.4,50.8z"/>
		<path d="M91,50.9c-0.1,0.3-0.4,0.4-0.6,0.5c-0.6,0.2-1.2-0.1-1.7-0.2c0-0.1,0.2-0.1,0.3-0.2c0.6-0.1,1.2-0.3,1.8-0.1
			C90.8,50.8,90.9,50.8,91,50.9L91,50.9z"/>
		<path d="M58.3,51.4c-0.1,0.1-0.1,0.2-0.2,0.3c-0.1,0.1-0.2,0-0.4-0.1c0-0.1-0.2-0.2-0.1-0.3c0-0.1,0.2-0.2,0.3-0.2
			C58.1,51.1,58.3,51.2,58.3,51.4L58.3,51.4z"/>
		<path d="M59.3,51.5c-0.1,0.1-0.1,0.3-0.2,0.3c-0.1,0-0.3,0-0.4-0.1c-0.1-0.1-0.1-0.2-0.1-0.4c0-0.1,0.2-0.1,0.2-0.2
			C59.1,51.2,59.3,51.4,59.3,51.5L59.3,51.5z"/>
		<path d="M92.1,51.7c0,0.1-0.1,0.2-0.1,0.3c-0.1,0.1-0.3,0.1-0.4,0.1c-0.1,0-0.2-0.2-0.2-0.3c-0.1-0.1,0.1-0.2,0.1-0.4
			C91.7,51.4,92,51.5,92.1,51.7L92.1,51.7z"/>
		<path d="M92.9,51.7c0,0.1,0.1,0.2,0,0.3c-0.1,0.1-0.2,0.3-0.4,0.2c-0.1,0-0.2-0.1-0.2-0.1c-0.1-0.2,0-0.4,0.2-0.5
			C92.7,51.5,92.8,51.6,92.9,51.7L92.9,51.7z"/>
		<path d="M58.7,52.2c0,0.2,0,0.4-0.2,0.5c-0.2,0-0.4,0-0.5-0.2c0-0.2,0-0.4,0.2-0.5C58.4,52,58.6,52,58.7,52.2L58.7,52.2z"/>
		<path d="M59.7,52.1c0,0.5-0.1,1.1-0.6,1.4c-0.3,0.1-0.6,0.3-0.9,0.1v-0.1C58.6,53.1,59.3,52.6,59.7,52.1L59.7,52.1z"/>
		<path d="M89.3,52.6c0.1,0.1-0.1,0.2-0.1,0.3c-0.1,0.1-0.3,0.1-0.4,0c-0.1-0.1-0.1-0.2-0.1-0.4c0-0.1,0.1-0.2,0.2-0.2
			C89.1,52.3,89.2,52.4,89.3,52.6L89.3,52.6z"/>
		<path d="M61.5,53.4c0.2,0.4,0.1,1,0.2,1.4c-0.3,0-0.4-0.3-0.6-0.5c-0.4-0.5-0.3-1.3-0.5-1.9c0-0.1,0.1-0.1,0.1,0
			c0.3,0.2,0.5,0.5,0.7,0.8C61.4,53.3,61.5,53.3,61.5,53.4L61.5,53.4z"/>
		<path d="M90.2,52.7c0,0.1-0.2,0.2-0.2,0.3c-0.1,0-0.2-0.1-0.3-0.2c-0.1-0.2,0.1-0.2,0.2-0.3C90,52.4,90.1,52.5,90.2,52.7
			L90.2,52.7z"/>
		<path d="M92.3,54.3c0,0.1,0,0.2-0.1,0.1h-0.1c-0.5-0.5-1-1-1-1.7l0.1,0C91.8,53.1,92.3,53.6,92.3,54.3L92.3,54.3z"/>
		<path d="M91,53.7c0,0.1-0.1,0.3-0.2,0.3c-0.2,0.1-0.5,0-0.5-0.2c0-0.2,0.2-0.3,0.3-0.4C90.8,53.4,90.9,53.6,91,53.7L91,53.7z"/>
		<path d="M89.8,54.1c-0.2,0.7-0.9,1-1.4,1.5c-0.1-0.1-0.1-0.2,0-0.3c0.2-0.7,0.7-1.3,1.4-1.6C90,53.8,89.7,54,89.8,54.1L89.8,54.1z
			"/>
		<path d="M91.1,54.6c0,0.2-0.2,0.2-0.2,0.3c-0.1,0-0.3-0.1-0.4-0.2c0-0.2,0.1-0.2,0.2-0.3C90.9,54.4,91.1,54.5,91.1,54.6L91.1,54.6
			z"/>
		<path d="M77.9,22c0.2,0,0.4,0.2,0.4,0.4c0,0.2-0.2,0.4-0.4,0.4h-5.3c-0.2,0-0.4-0.2-0.4-0.4c0-0.2,0.2-0.4,0.4-0.4H77.9L77.9,22z
			 M74.1,22.8c0.5,0,0-0.6-0.2-0.6h-0.5c-0.5,0,0,0.6,0.2,0.6H74.1L74.1,22.8z M76.3,22.8c0.5,0,0-0.6-0.2-0.6h-0.5
			c-0.5,0,0,0.6,0.2,0.6H76.3L76.3,22.8z M77.9,22.1h-0.2c-0.5,0-0.1,0.6,0.2,0.6C78.2,22.8,78.2,22.1,77.9,22.1L77.9,22.1z"/>
		<path d="M77.4,28.1l1,0.4l1-0.4L79,29.6l0.8-0.2l-0.3,0.9l0.3,0.9L79.1,31l0.3,1.6l-1-0.4l-1,0.4l0.4-1.6L77,31.2l0.2-0.9L77,29.4
			l0.8,0.1L77.4,28.1L77.4,28.1z M78.9,30.8c0.2,0,0.2-0.3,0.2-0.6c0-0.6-0.5,0-0.7-0.6c-0.2,0.5-0.7,0-0.7,0.6c0,0.4,0,0.6,0.4,0.6
			H78.9L78.9,30.8z M77.9,30.2c0,0.2,0.3,0.1,0.5,0.1c0.2,0,0.5,0.2,0.5-0.1c0-0.3-0.3-0.2-0.5-0.2C78.2,30,77.9,29.9,77.9,30.2
			L77.9,30.2z"/>
		<polygon points="75,30.3 75,30.1 74.9,30 75,29.9 74.9,29.8 75.1,29.8 75.2,29.6 75.3,29.8 75.5,29.8 75.4,29.9 75.5,30 
			75.3,30.1 75.3,30.3 75.2,30.1 75,30.3 		"/>
		<polygon points="74.2,31.3 74.2,31.1 74.1,31.1 74.2,30.9 74.1,30.8 74.3,30.8 74.4,30.6 74.5,30.8 74.7,30.8 74.6,30.9 
			74.7,31.1 74.6,31.1 74.6,31.3 74.4,31.2 74.2,31.3 		"/>
		<polygon points="75.6,31.1 75.6,31 75.4,30.9 75.5,30.8 75.4,30.6 75.6,30.7 75.7,30.5 75.8,30.7 76,30.6 75.9,30.8 76.1,30.9 
			75.9,31 75.9,31.1 75.7,31 75.6,31.1 		"/>
		<polygon points="75.7,31.9 75.7,31.8 75.6,31.8 75.7,31.7 75.7,31.6 75.8,31.6 75.8,31.5 75.9,31.6 76,31.6 75.9,31.7 76,31.8 
			75.9,31.8 75.9,31.9 75.8,31.8 75.7,31.9 		"/>
		<polygon points="74.5,32.8 74.5,32.4 74.2,32.4 74.4,32.1 74.3,31.9 74.6,31.9 74.8,31.6 74.9,31.9 75.2,31.9 75.1,32.1 
			75.3,32.4 75,32.4 75,32.8 74.8,32.6 74.5,32.8 		"/>
		<polygon points="75.1,15.8 75.7,17.4 77.3,16.9 76.5,18.3 77.9,19.3 76.3,19.6 76.4,21.2 75.1,20.1 73.9,21.2 74,19.6 72.3,19.3 
			73.7,18.3 72.9,16.9 74.5,17.4 75.1,15.8 		"/>
		<path d="M69.4,50.5c-0.2,0.1-0.3,0.1-0.2,0.3l0.2,0.9c0,0.2,0.1,0.5-0.1,0.6c-0.1,0.2-0.4,0.3-0.6,0.4c-0.2,0-0.5,0.1-0.8,0
			c-0.2-0.1-0.3-0.2-0.4-0.5l-0.2-1c-0.1-0.2-0.2-0.2-0.4-0.2l0-0.1l1.2-0.3l0,0.1c-0.2,0.1-0.3,0.1-0.3,0.4l0.2,1
			c0,0.2,0.1,0.6,0.6,0.5c0.6-0.1,0.5-0.6,0.5-0.8L69,50.9c0-0.2-0.1-0.3-0.4-0.2l0-0.1L69.4,50.5L69.4,50.5L69.4,50.5z"/>
		<path d="M71.1,50.7c-0.1-0.2-0.4-0.5-0.8-0.4c-0.2,0-0.4,0.2-0.3,0.4c0,0.2,0.1,0.2,0.4,0.3L71,51c0.1,0,0.4,0.1,0.5,0.5
			c0.1,0.3-0.1,0.7-0.7,0.8c-0.3,0.1-0.5,0-0.6,0c-0.1,0-0.1,0.1-0.1,0.1l-0.1,0l-0.2-0.7l0.1,0c0.1,0.3,0.4,0.6,0.9,0.5
			c0.4-0.1,0.4-0.4,0.4-0.4c0-0.2-0.2-0.2-0.5-0.3l-0.3,0c-0.7-0.1-0.7-0.4-0.7-0.5c0-0.2,0-0.6,0.7-0.8c0.3-0.1,0.5,0,0.6,0
			c0.1,0,0.1-0.1,0.1-0.1l0.1,0l0.1,0.6L71.1,50.7L71.1,50.7z"/>
		<path d="M73.5,51.9L72.2,52l0-0.1c0.3,0,0.3-0.1,0.3-0.3L72.4,50c-0.3,0-0.6,0.1-0.7,0.6l-0.1,0l0-0.6l2.2-0.2l0.1,0.6l-0.1,0
			c-0.1-0.5-0.5-0.5-0.7-0.4l0.2,1.6C73.1,51.8,73.2,51.8,73.5,51.9L73.5,51.9L73.5,51.9z"/>
		<path d="M76.5,51.9l-0.7,0l-0.7-1l-0.1,0l0,0.6c0,0.2,0.1,0.3,0.3,0.3l0,0.1l-1.2,0l0-0.1c0.2,0,0.3,0,0.3-0.3l0-1.4
			c0-0.3-0.1-0.3-0.3-0.3l0-0.1l1.2,0c0.3,0,1,0,1,0.6c0,0.4-0.4,0.5-0.6,0.5l0.7,0.9C76.4,51.8,76.5,51.8,76.5,51.9L76.5,51.9
			L76.5,51.9z M74.9,50.8c0.5,0,0.7-0.1,0.7-0.5c0-0.3-0.1-0.4-0.4-0.4c-0.2,0-0.2,0-0.2,0.1L74.9,50.8L74.9,50.8z"/>
		<path d="M78.9,52.2L77.7,52l0-0.1c0.2,0,0.3,0,0.3-0.1c0-0.1-0.1-0.3-0.1-0.4l-0.8-0.1c-0.1,0.2-0.2,0.3-0.2,0.4
			c0,0.1,0.2,0.1,0.3,0.2l0,0.1l-0.7-0.1l0-0.1c0.2,0,0.3-0.1,0.4-0.3l1-1.6l0.1,0l0.6,1.7C78.7,52,78.7,52.1,78.9,52.2L78.9,52.2
			L78.9,52.2z M77.9,51.3l-0.3-0.8l-0.4,0.7L77.9,51.3L77.9,51.3z"/>
		<path d="M81,52.6L79,52.2l0-0.1c0.2,0,0.3,0,0.3-0.2l0.3-1.5c0-0.2-0.1-0.2-0.3-0.3l0-0.1l1.2,0.2l0,0.1c-0.3,0-0.4-0.1-0.4,0.2
			l-0.3,1.4c0,0.1,0,0.2,0.3,0.2c0.5,0.1,0.8-0.1,1-0.4l0.1,0L81,52.6L81,52.6z"/>
		<path d="M82.4,52.9l-1.2-0.3l0-0.1c0.2,0,0.3,0,0.4-0.1l0.3-1.4c0-0.2-0.1-0.2-0.3-0.3l0-0.1l1.2,0.3l0,0.1
			c-0.2,0-0.3-0.1-0.4,0.1l-0.3,1.4C82.1,52.7,82.2,52.8,82.4,52.9L82.4,52.9L82.4,52.9z"/>
		<path d="M84.9,53.2l-1.2-0.1l0-0.1c0.2,0,0.3,0,0.3-0.1c0-0.1-0.1-0.3-0.1-0.4l-0.8-0.1c-0.1,0.2-0.2,0.3-0.2,0.4
			c0,0.1,0.2,0.1,0.3,0.2l0,0.1L82.5,53l0-0.1c0.2,0,0.3-0.1,0.4-0.3l1-1.6l0.1,0l0.6,1.7C84.7,53,84.8,53.1,84.9,53.2L84.9,53.2
			L84.9,53.2z M83.9,52.4l-0.3-0.8l-0.4,0.7L83.9,52.4L83.9,52.4z"/>
		<path d="M75.6,28.6c0-0.7-0.4,0-0.6-0.7c-0.2,0.5-0.7,0.1-0.7,0.7c0,0.2,0.1,0.3,0.2,0.4v0.2c0,0.1,0,0.1,0.1,0.1h0.8
			c0.1,0,0.1,0,0.1-0.1v-0.2C75.6,28.9,75.6,28.7,75.6,28.6L75.6,28.6z M75,28.7c-0.2,0-0.5,0.1-0.5-0.1c0-0.4,0.2-0.3,0.5-0.3
			c0.2,0,0.5-0.1,0.5,0.3C75.5,28.9,75.2,28.7,75,28.7L75,28.7z"/>
		<path d="M82,37.6c0.2,0,0.3-0.1,0.3-0.3c0-0.2-0.2-0.3-0.3-0.3c-0.2,0-0.3,0.1-0.3,0.3C81.7,37.4,81.8,37.6,82,37.6L82,37.6z"/>
		<path d="M80.4,26.7c0,0-0.2,0.3-0.2,0.3c0,0.1,0.1,0.2,0.2,0.2c0.1,0,0.2-0.1,0.2-0.2C80.6,27,80.4,26.7,80.4,26.7L80.4,26.7z"/>
		<path d="M69.6,26.7c0,0-0.2,0.3-0.2,0.3c0,0.1,0.1,0.2,0.2,0.2c0.1,0,0.2-0.1,0.2-0.2C69.8,27,69.6,26.7,69.6,26.7L69.6,26.7z"/>
		<path d="M72.3,26.7c0,0-0.2,0.3-0.2,0.3c0,0.1,0.1,0.2,0.2,0.2c0.1,0,0.2-0.1,0.2-0.2C72.5,27,72.3,26.7,72.3,26.7L72.3,26.7z"/>
		<path d="M75,26.7c0,0-0.2,0.3-0.2,0.3c0,0.1,0.1,0.2,0.2,0.2c0.1,0,0.2-0.1,0.2-0.2C75.2,27,75,26.7,75,26.7L75,26.7z"/>
		<path d="M77.7,26.7c0,0-0.2,0.3-0.2,0.3c0,0.1,0.1,0.2,0.2,0.2c0.1,0,0.2-0.1,0.2-0.2C77.9,27,77.7,26.7,77.7,26.7L77.7,26.7z"/>
		<path d="M69.6,30.4c0,0,0.2,0.3,0.2,0.3c0,0.1-0.1,0.2-0.2,0.2c-0.1,0-0.2-0.1-0.2-0.2C69.5,30.7,69.6,30.4,69.6,30.4L69.6,30.4z"
			/>
		<path d="M69.6,34c0,0,0.2,0.3,0.2,0.3c0,0.1-0.1,0.2-0.2,0.2c-0.1,0-0.2-0.1-0.2-0.2C69.5,34.3,69.6,34,69.6,34L69.6,34z"/>
		<path d="M70.1,36.8c0,0,0.2,0.3,0.2,0.3c0,0.1-0.1,0.2-0.2,0.2c-0.1,0-0.2-0.1-0.2-0.2C69.9,37.2,70.1,36.8,70.1,36.8L70.1,36.8z"
			/>
		<path d="M72.3,38.4c0,0,0.2,0.3,0.2,0.3c0,0.1-0.1,0.2-0.2,0.2s-0.2-0.1-0.2-0.2C72.2,38.7,72.3,38.4,72.3,38.4L72.3,38.4z"/>
		<path d="M80.6,30.4c0,0-0.2,0.3-0.2,0.3c0,0.1,0.1,0.2,0.2,0.2s0.2-0.1,0.2-0.2C80.7,30.7,80.6,30.4,80.6,30.4L80.6,30.4z"/>
		<path d="M80.6,34c0,0-0.2,0.3-0.2,0.3c0,0.1,0.1,0.2,0.2,0.2s0.2-0.1,0.2-0.2C80.7,34.3,80.6,34,80.6,34L80.6,34z"/>
		<path d="M80.1,36.8c0,0-0.2,0.3-0.2,0.3c0,0.1,0.1,0.2,0.2,0.2c0.1,0,0.2-0.1,0.2-0.2C80.3,37.2,80.1,36.8,80.1,36.8L80.1,36.8z"
			/>
		<path d="M77.9,38.4c0,0-0.2,0.3-0.2,0.3c0,0.1,0.1,0.2,0.2,0.2c0.1,0,0.2-0.1,0.2-0.2C78,38.7,77.9,38.4,77.9,38.4L77.9,38.4z"/>
		<path d="M75.1,40c0,0-0.2,0.3-0.2,0.3c0,0.1,0.1,0.2,0.2,0.2c0.1,0,0.2-0.1,0.2-0.2C75.3,40.3,75.1,40,75.1,40L75.1,40z"/>
		<path d="M79.5,34.6c0,0.1,0.1,0.1,0.2,0l0.1-0.3c0,0-0.1-0.1-0.2-0.1c-0.3,0.1-0.6,0.1-0.8,0.4c0,0.2,0.1,0.4,0.3,0.4
			c0.1,0,0.1,0.1,0.2,0.1c0,0.1,0,0.2-0.1,0.2c-0.2-0.2-0.6,0.1-0.7-0.2c0.1-0.3,0.2-0.5,0-0.8c0-0.1,0.1-0.1,0.1-0.2
			c-0.1-0.2-0.3-0.1-0.5-0.1c-0.3,0-0.5,0.1-0.6,0.3c0,0.1,0.1,0.2,0.1,0.3c0.1,0,0.1,0,0.1,0.1l-0.2,0.1c0.1,0.1,0.1,0.1,0.1,0.2
			c-0.1,0.1-0.2-0.1-0.3-0.2c0-0.1,0-0.4-0.2-0.4c0,0-0.1,0-0.1,0c0,0.1-0.1,0.2-0.1,0.3c0,0.1,0.1,0.3,0.1,0.3s0.5,0.4,0.6,0.6
			c-0.2,0.3-0.2,0.7-0.5,0.9C77,36.7,77,36.8,77,36.9l0.1,0.1c0.2-0.1,0.6-0.2,0.6-0.5c0.1-0.2,0.2-0.3,0.3-0.4
			c0.2,0,0.3,0.1,0.4,0.2c-0.1,0.3-0.2,0.4-0.5,0.5c0,0,0,0.1,0,0.1c0.1,0.1,0.3,0.1,0.4,0.1c0.3-0.2,0.4-0.5,0.7-0.6
			c0,0.2-0.3,0.2-0.1,0.4c0.2,0,0.4,0,0.5-0.2c-0.1-0.3,0.4-0.4,0.1-0.7c0-0.3,0.3-0.4,0.3-0.6c-0.1-0.3-0.4-0.3-0.5-0.5
			C79.2,34.5,79.4,34.5,79.5,34.6L79.5,34.6z"/>
		<path d="M67.1,37.7c0.2,0,0.3-0.1,0.3-0.3c0-0.2-0.2-0.3-0.3-0.3c-0.2,0-0.3,0.1-0.3,0.3C66.8,37.6,66.9,37.7,67.1,37.7L67.1,37.7
			z"/>
		<path d="M49.6,47.9c0.2,0,0.3-0.1,0.3-0.3c0-0.2-0.1-0.3-0.3-0.3c-0.2,0-0.3,0.1-0.3,0.3C49.3,47.8,49.5,47.9,49.6,47.9L49.6,47.9
			z"/>
		<path d="M60.8,50.4L60.8,50.4L60.8,50.4L60.8,50.4L60.8,50.4C60.7,50.4,60.7,50.4,60.8,50.4L60.8,50.4L60.8,50.4L60.8,50.4
			C60.7,50.4,60.7,50.4,60.8,50.4L60.8,50.4C60.7,50.3,60.7,50.3,60.8,50.4L60.8,50.4L60.8,50.4C60.7,50.3,60.8,50.3,60.8,50.4
			C60.8,50.4,60.7,50.4,60.8,50.4L60.8,50.4C60.8,50.4,60.8,50.4,60.8,50.4L60.8,50.4L60.8,50.4z M60.7,50.4
			C60.7,50.4,60.7,50.4,60.7,50.4C60.7,50.3,60.7,50.3,60.7,50.4C60.7,50.3,60.7,50.3,60.7,50.4L60.7,50.4L60.7,50.4z"/>
		<path d="M60.8,50.4C60.8,50.4,60.8,50.3,60.8,50.4C60.8,50.3,60.8,50.3,60.8,50.4C60.8,50.4,60.8,50.4,60.8,50.4L60.8,50.4
			C60.8,50.4,60.8,50.4,60.8,50.4C60.8,50.4,60.8,50.4,60.8,50.4C60.8,50.4,60.8,50.4,60.8,50.4C60.8,50.4,60.8,50.4,60.8,50.4
			L60.8,50.4L60.8,50.4L60.8,50.4C60.8,50.4,60.8,50.4,60.8,50.4C60.8,50.4,60.8,50.4,60.8,50.4C60.8,50.4,60.8,50.4,60.8,50.4
			L60.8,50.4C60.8,50.4,60.8,50.4,60.8,50.4C60.8,50.3,60.8,50.3,60.8,50.4C60.8,50.3,60.8,50.3,60.8,50.4
			C60.8,50.3,60.8,50.3,60.8,50.4L60.8,50.4L60.8,50.4L60.8,50.4L60.8,50.4z"/>
		<path d="M60.9,50.3C60.9,50.3,60.9,50.3,60.9,50.3L60.9,50.3L60.9,50.3L60.9,50.3L60.9,50.3L60.9,50.3L60.9,50.3L60.9,50.3
			c-0.1,0-0.1,0-0.1,0v0L60.9,50.3L60.9,50.3C60.8,50.3,60.8,50.3,60.9,50.3C60.8,50.3,60.8,50.3,60.9,50.3L60.9,50.3L60.9,50.3
			L60.9,50.3L60.9,50.3C60.9,50.3,60.9,50.3,60.9,50.3L60.9,50.3L60.9,50.3L60.9,50.3C60.9,50.3,60.9,50.3,60.9,50.3
			C60.9,50.3,60.9,50.3,60.9,50.3L60.9,50.3L60.9,50.3L60.9,50.3C60.9,50.3,60.9,50.3,60.9,50.3C60.9,50.3,60.9,50.3,60.9,50.3
			L60.9,50.3L60.9,50.3L60.9,50.3L60.9,50.3z"/>
		<path d="M60.9,50.4C60.9,50.4,60.9,50.4,60.9,50.4C61,50.4,60.9,50.4,60.9,50.4C60.9,50.4,60.9,50.4,60.9,50.4
			C60.9,50.4,60.9,50.4,60.9,50.4C60.9,50.4,60.9,50.3,60.9,50.4C61,50.3,61,50.3,60.9,50.4C61,50.4,61,50.4,60.9,50.4L60.9,50.4
			L60.9,50.4z M60.9,50.4C61,50.4,61,50.4,60.9,50.4C61,50.4,61,50.4,60.9,50.4C61,50.3,61,50.3,60.9,50.4
			C60.9,50.3,60.9,50.3,60.9,50.4C60.9,50.4,60.9,50.4,60.9,50.4L60.9,50.4z"/>
		<path d="M61,50.4C61,50.4,61,50.4,61,50.4C61,50.4,61,50.4,61,50.4C61,50.4,61,50.4,61,50.4C61,50.4,61,50.4,61,50.4
			C61,50.4,61,50.4,61,50.4C61,50.4,61,50.4,61,50.4C61,50.4,61,50.4,61,50.4C61,50.4,61,50.4,61,50.4C61,50.4,61,50.4,61,50.4
			L61,50.4L61,50.4L61,50.4L61,50.4L61,50.4L61,50.4z"/>
		<path d="M81.3,26.3L81.3,26.3l-12.4,0v0h0l0,9.5c0,1,0.4,1.8,1,2.1l4.8,3c0.1,0.1,0.3,0.2,0.4,0.2c0.2,0,0.3-0.1,0.4-0.2l4.9-3.1
			c0.6-0.3,1-1.1,1-2.1L81.3,26.3L81.3,26.3L81.3,26.3z M81,35.9c-0.1,0.7-0.3,1.3-0.8,1.7l-4.7,3h0c-0.1,0.1-0.2,0.1-0.4,0.1
			c-0.1,0-0.3-0.1-0.4-0.1l-4.7-3c-0.5-0.3-0.7-0.9-0.8-1.7v-9.3H81V35.9L81,35.9z"/>
		<path d="M76.8,40.1l0.2-0.1C76.9,40.1,76.8,40.1,76.8,40.1L76.8,40.1z"/>
		<path d="M67.4,53.1l-1.2,0.1l0-0.1c0.2,0,0.3-0.1,0.3-0.2c0-0.1-0.2-0.3-0.2-0.4l-0.8,0.1c-0.1,0.2-0.1,0.4-0.1,0.4
			c0,0.1,0.2,0.1,0.3,0.1l0,0.1l-0.7,0.1l0-0.1c0.2,0,0.2-0.2,0.3-0.4l0.6-1.8l0.1,0l1,1.5C67.1,53,67.2,53.1,67.4,53.1L67.4,53.1
			L67.4,53.1z M66.2,52.5l-0.5-0.7l-0.3,0.8L66.2,52.5L66.2,52.5z"/>
		<path d="M88,48.7c-0.2-0.6-0.7-0.9-1.2-1.1c-0.6-0.1-1.2,0-1.6,0.4C84.6,48.5,85,49.3,85,50c0,0.1,0,0.3-0.1,0.3
			c-2.6-0.2-5-0.9-7.6-1.2c-0.6-0.1-1.2-0.1-1.7-0.2l-0.7-0.1c-2.2,0.1-4.5,0.2-6.6,0.7c-0.4,0.1-0.9,0.2-1.4,0.3
			c-0.3-0.1-0.6,0.2-0.9,0.1l-0.6,0.1c-0.1,0-0.1,0-0.2,0c-0.3-0.7,0.6-1.2,0.3-1.9c-0.2-0.4-0.7-0.8-1.2-0.7
			c-0.6-0.1-1.1,0.3-1.4,0.7c-0.4,0.9,0.1,1.8,0.3,2.7c0,0.3,0.3,0.6,0,0.8c-0.6-0.4-1.3-0.6-2-0.4c-0.2,0.1-0.6,0-0.7,0.2
			c0.8,0.4,1.7,0.4,2.6,0.3c0.1,0,0.2-0.1,0.3,0c0.1,0.5-0.1,1.1,0.2,1.5c0.3,0.4,0.9,0.5,1.4,0.6c1.6-0.1,3.1-0.5,4.6-0.9
			c0.2,0,0.4-0.1,0.7-0.1c0.8-0.2,1.7-0.3,2.5-0.3c-0.4,0.5-0.6,1-0.8,1.6c-0.2,0.5,0.4,0.6,0.6,0.8c-0.6,0.2-0.9,0.5-1.5,0.8
			c-1.1,0-2.1,0.4-3.2,0.5c0,0.2,0.4,0.2,0.4,0.4c-0.1,0.2-0.2,0.2-0.3,0.3c0,0.1,0,0.1,0.1,0.1c0.1-0.1,0.3,0,0.4-0.2
			c0.4,0,0.7-0.1,1-0.1c0.3-0.1,0.6-0.1,0.9-0.4c0.4-0.1,0.6-0.4,1-0.5c0.5,0,1-0.2,1.5-0.2V56c-0.4,0.7-0.8,1.3-1.3,2
			c-0.1,0.1,0,0.3,0.1,0.3c0.2,0.1,0.5,0,0.7-0.1c0.4-0.6,0.7-1.3,1-1.9c0.1-0.6,0.6-0.9,1-1.3c0.1,0,0.2-0.1,0.2,0
			c-0.4,0.4-0.6,0.8-0.9,1.3c-0.1,0.5-0.2,1.2,0.3,1.6c0.2,0.2,0.5,0.1,0.8,0.1c0.7-0.4,1.6,0.2,2.1-0.5c0.3-0.1,0.4,0.3,0.6,0.5
			c0.3,0.1,0.6,0.4,0.9,0.2c0-0.2-0.2-0.4-0.3-0.6c-0.2-0.4-0.5-0.7-0.7-1c-0.1-0.3-0.2-0.4-0.3-0.7c0.3,0.1,0.6,0.3,1,0.4
			c0.3,0.1,0.7,0.1,1,0.3c0.2,0.3,0.6,0.5,0.9,0.7c0.4,0.2,0.9,0.3,1.4,0.4c0.2,0,0.4,0.2,0.6,0c-0.1-0.1-0.2-0.1-0.3-0.2
			c-0.1-0.2,0.3-0.1,0.4-0.3c0-0.1-0.1-0.1-0.2-0.1c-0.3-0.1-0.9-0.2-1.1-0.3c-0.2,0-0.4-0.1-0.6-0.2c-1.1,0-1.7-1-2.5-1.3
			c0.2-0.2,0.5-0.3,0.6-0.6c0.2-0.3,0.2-0.7,0.1-1c-0.2-0.6-0.9-0.5-1.3-0.8l0.1-0.1c0.7,0,1.3,0.1,1.9,0.3c1.7,0.2,3.3,0.9,5.1,0.9
			c1,0,2.2,0.1,2.7-0.9c0.1-0.6,0.2-1.1,0.3-1.7C87.5,50.5,88.1,49.7,88,48.7L88,48.7z M68.7,56.9l-0.2-0.2c0.1-0.2,0.4-0.1,0.6-0.2
			c0.5-0.1,1-0.3,1.5-0.2C70,56.7,69.3,56.7,68.7,56.9L68.7,56.9z M79.9,56.6c0.4,0.2,1.3,0.4,1.9,0.5c-0.1,0.2-0.5,0-0.4,0.4
			c-0.6-0.2-1.2-0.3-1.6-0.8C79.8,56.6,79.8,56.6,79.9,56.6L79.9,56.6z M63.1,48.9c0.1-0.3,0.1-0.7,0.4-0.9c0.4-0.2,1-0.2,1.4,0.1
			c0.1,0.1,0.2,0.2,0.3,0.3c0.1,0.3-0.1,0.6-0.3,0.8h-0.2c0-0.3,0-0.6,0.1-0.8c0-0.2-0.2-0.2-0.3-0.3c-0.3-0.1-0.6,0.1-0.8,0.2
			c-0.2,0.2-0.3,0.5-0.2,0.8c0.1,0.2,0,0.5,0.1,0.7l-0.1,0.1C63.3,49.6,63.1,49.4,63.1,48.9L63.1,48.9z M63.9,49.5
			c0.3,0.2,0.6,0.1,1,0.2c0.1,0.2,0.1,0.5-0.1,0.6c-0.3-0.1-0.7,0-0.9-0.3C64,49.8,63.9,49.6,63.9,49.5L63.9,49.5z M63.9,48.9
			c0.1-0.1,0-0.4,0.2-0.4c0.1,0,0.3,0,0.3,0.1c0,0.2,0,0.4-0.1,0.6C64.1,49.2,64,49.1,63.9,48.9L63.9,48.9z M72.3,54.6
			c-0.1-0.6,0.2-1.2,0.6-1.6c0.2-0.1,0.5-0.1,0.8,0c-0.5,0.1-1.1,0.2-1.2,0.8c0,0.2-0.1,0.4,0.1,0.6c0.2,0.3,0.6,0.2,0.9,0.5
			c0,0.1-0.1,0.2-0.2,0.2C72.9,54.9,72.6,54.9,72.3,54.6L72.3,54.6z M71.6,55.9c0.4-0.2,0.9-0.6,1.4-0.4
			C72.6,55.7,72.1,55.8,71.6,55.9L71.6,55.9z M73.3,56c-0.2,0.6-0.5,1.1-0.9,1.7c0,0.1-0.2,0.1-0.3,0.1c0-0.3,0.2-0.4,0.4-0.7
			c0.4-0.5,0.5-1,0.9-1.5C73.5,55.8,73.3,55.9,73.3,56L73.3,56z M73.8,55L73.8,55L73.8,55L73.8,55L73.8,55L73.8,55
			C73.8,55,73.7,55,73.8,55L73.8,55L73.8,55z M73.6,54.5c-0.3,0-0.6-0.1-0.9-0.2c-0.2-0.2,0-0.4,0-0.6c0.2-0.4,1-0.6,1.3-0.2
			C74,53.9,73.9,54.2,73.6,54.5L73.6,54.5z M74,54.5c0.1-0.2,0.2-0.5,0.3-0.8C74.3,54,74.2,54.3,74,54.5L74,54.5z M74.2,53.1
			c-0.2-0.1-0.4-0.3-0.6-0.3c0.2-0.1,0.4-0.1,0.7,0C74.4,52.8,74.2,53,74.2,53.1L74.2,53.1z M74.4,53.6L74.4,53.6l0-0.2h0V53.6
			L74.4,53.6z M74.4,54.4c0-0.1,0-0.2,0.1-0.3c0.1-0.1,0.2,0.1,0.2,0.1C74.6,54.4,74.5,54.4,74.4,54.4L74.4,54.4z M74.7,53.3
			c0.1-0.3,0.1-0.5,0.3-0.7c0.2,0,0.3,0,0.5,0.1c0,0.4,0.5,0.8,0,1.2c-0.2,0.1-0.4,0.2-0.6,0.1C74.6,53.7,74.6,53.6,74.7,53.3
			L74.7,53.3z M76,52.8c0-0.2,0.2,0,0.2-0.1l0.6,0C76.5,52.7,76.1,53.4,76,52.8L76,52.8z M76.9,53c-0.2,0.1-0.4,0.3-0.6,0.4
			C76.4,53.2,76.7,53,76.9,53L76.9,53z M76.1,54.2L76.1,54.2L76.1,54.2L76.1,54.2L76.1,54.2L76.1,54.2z M76.2,55.3c0,0,0,0.1,0,0.1
			l-0.4-0.3C75.9,55,76.1,55.1,76.2,55.3L76.2,55.3z M75.7,54.7c0,0,0.1,0,0.2,0H75.7L75.7,54.7z M75.4,54.4
			c0.1-0.1,0.2-0.3,0.3-0.3c0,0,0,0,0,0.1C75.7,54.3,75.6,54.4,75.4,54.4L75.4,54.4z M75,54.4L75,54.4l0-0.1
			C75.1,54.3,75.1,54.4,75,54.4L75,54.4z M75.1,55.1c0.2-0.3,0.4,0.1,0.5,0.3c0.3,0.4,1,0.8,0.7,1.3c-0.3,0.3-0.9,0-1.2,0.3
			c-0.2,0-0.5,0-0.6-0.2C74.6,56.2,74.8,55.6,75.1,55.1L75.1,55.1z M74.6,55.4l0.1-0.1c-0.1,0.4-0.4,0.9-0.6,1.3
			C74,56.1,74.4,55.8,74.6,55.4L74.6,55.4z M75.4,57.6c-0.3,0-0.9,0.2-1.2-0.1c0-0.1-0.1-0.2-0.1-0.4c0.3-0.1,0.5,0.2,0.8,0
			c0.4,0,0.8-0.1,1.2,0c0.2,0.1,0.5-0.3,0.5,0.1C76.5,57.8,75.8,57.4,75.4,57.6L75.4,57.6z M76.4,55L76.4,55L76.4,55L76.4,55
			L76.4,55L76.4,55z M76.5,56.1c0,0.2,0.2,0.3,0.1,0.4C76.6,56.4,76.5,56.3,76.5,56.1L76.5,56.1z M77,57.2L77,57.2
			c-0.2,0-0.1-0.2-0.1-0.3C77,56.9,77.1,57,77,57.2L77,57.2z M77.9,57.6c0,0.1-0.1,0.1-0.1,0c-0.5-0.7-0.8-1.4-1.1-2.2l0.1,0
			C77.1,56.2,77.5,56.9,77.9,57.6L77.9,57.6z M78.6,56C78.5,56,78.5,56,78.6,56c-0.6,0.1-0.9-0.2-1.3-0.5l0-0.1
			C77.7,55.4,78.1,55.7,78.6,56L78.6,56z M78.1,53.6c0.2,0.1,0.2,0.3,0.3,0.5c0,0.4-0.2,0.7-0.6,0.9c-0.2,0.1-0.5,0.1-0.7,0.1
			c0.4,0,0.9-0.2,1.1-0.6L78.1,53.6L78.1,53.6z M77.7,53.5c0.1,0.3,0.2,0.5,0.2,0.8c-0.2,0.3-0.5,0.3-0.9,0.4c-0.2,0-0.3,0-0.4-0.1
			c0-0.1,0-0.1-0.1-0.2c0.1-0.2-0.4-0.5-0.1-0.7C76.7,53.5,77.4,52.8,77.7,53.5L77.7,53.5z M86.8,52.2c-0.1,0.2,0,0.5-0.2,0.6
			c0,0.3-0.3,0.5-0.5,0.6c-2.1,0.5-4.2-0.3-6.3-0.6c-2.9-0.6-6.2-0.8-9.2-0.1c-1.4,0.3-2.7,0.6-4,1c-0.8,0.1-1.7,0.2-2.5,0
			c-0.6-0.3-0.4-1.1-0.6-1.7c0-0.5-0.1-0.8-0.1-1.2c-0.1-0.1-0.1-0.3-0.1-0.5c0.3,0,0.5,0.2,0.8,0.3c1.5,0.3,2.8-0.2,4.2-0.5
			c1.3-0.3,2.7-0.5,4.1-0.6c1.6,0,3.2-0.1,4.8,0.2c0.5,0,0.9,0.1,1.4,0.2c1,0.1,1.9,0.4,2.9,0.5c0.2,0.1,0.4,0.1,0.5,0.1
			c1.6,0.3,3.4,0.7,4.9,0C87.1,51,86.9,51.5,86.8,52.2L86.8,52.2z M86.3,50c0,0.3-0.2,0.2-0.4,0.3h-0.4c-0.1-0.1-0.1-0.4-0.1-0.5
			C85.7,49.9,86,49.9,86.3,50L86.3,50z M86.1,49.5c0.2-0.2-0.1-1.3,0.5-0.6c0,0.1,0,0.4-0.1,0.5C86.4,49.5,86.2,49.6,86.1,49.5
			L86.1,49.5z M87.5,49.4c-0.2,0.3-0.4,0.6-0.8,0.6c0-0.4,0.4-0.7,0.3-1.2c-0.2-0.3-0.7-0.4-1.1-0.4c-0.2,0.1-0.1,0.3-0.1,0.4
			l-0.1,0.6c-0.4,0-0.4-0.3-0.5-0.6c0-0.4,0.2-0.8,0.6-0.9c0.3-0.1,0.7-0.1,1,0c0.2,0.1,0.5,0.2,0.6,0.4
			C87.7,48.6,87.6,49,87.5,49.4L87.5,49.4z"/>
	</g>
	<g>
		<rect x="147.1" y="15.8" width="0.5" height="56.2"/>
	</g>
</g>
</svg>
